
<svg xmlns="http://www.w3.org/2000/svg" xmlns:v="https://svgstorm.com"
viewBox = "0 0 679 1472"
width="679"
height="1472">
<g fill="None" fill-opacity="0.0" stroke="#000000" stroke-opacity="0.00" stroke-width="0.3"><path d="
M 0.00 1135.00 
C 11.43 1131.40 21.43 1123.39 33.00 1120.00
C 25.11 1113.78 15.16 1108.29 6.00 1103.00
C 12.48 1094.32 17.72 1084.62 26.25 1077.25 C 34.78 1069.88 51.22 1070.42 63.07 1067.07 C 74.93 1063.73 81.46 1054.57 88.30 1045.30 C 95.14 1036.04 105.15 1030.65 112.23 1022.23 C 119.31 1013.81 127.91 1007.17 136.00 999.00
C 145.25 989.75 157.94 976.85 164.00 965.00
C 167.32 958.50 170.00 950.95 173.31 944.31 C 176.61 937.66 179.76 929.32 182.92 922.92 C 186.09 916.53 187.77 907.27 191.77 901.77 C 195.77 896.27 194.42 882.55 201.00 880.00
C 206.74 877.77 219.17 880.84 225.00 881.00 C 230.83 881.16 242.09 882.80 247.00 884.00 C 251.91 885.20 263.13 886.49 265.00 891.00
C 266.92 876.23 271.97 861.88 272.93 846.93 C 273.89 831.98 279.62 813.00 275.00 798.00
C 273.22 792.20 266.11 783.92 261.00 780.00
C 246.35 768.77 221.46 763.10 212.00 747.00
C 209.17 742.19 203.83 731.51 207.00 725.00
C 196.20 731.67 180.19 736.60 168.00 740.00
C 155.75 743.42 145.63 738.45 133.78 738.22 C 121.93 738.00 117.78 729.90 109.75 723.25 C 101.72 716.59 99.03 710.46 89.75 704.25 C 80.47 698.03 79.45 686.03 81.00 675.00 C 82.55 663.97 82.02 650.64 85.93 640.93 C 89.83 631.21 95.59 624.55 103.23 619.23 C 110.88 613.91 117.87 606.40 127.00 604.00
C 130.36 597.49 127.35 585.71 130.98 578.98 C 134.61 572.25 133.07 562.34 136.99 555.99 C 140.92 549.64 140.87 541.33 146.00 536.00
C 135.59 540.04 130.21 539.91 119.77 545.77 C 109.34 551.63 99.68 540.61 109.75 533.75 C 119.83 526.90 121.68 525.40 133.00 521.00
C 131.91 521.15 107.54 523.27 112.93 513.93 C 118.32 504.58 129.64 506.75 138.02 503.02 C 146.40 499.30 162.04 499.95 171.00 502.00
C 182.88 488.39 198.21 480.13 215.67 486.33 C 233.13 492.53 254.85 495.62 274.00 496.00
C 282.66 496.17 291.34 496.00 300.00 496.00
C 307.05 496.00 313.81 494.11 321.00 495.00
C 310.00 490.68 298.02 481.20 293.00 470.00
C 281.53 461.21 266.90 454.71 262.03 438.97 C 257.15 423.24 252.07 404.87 251.00 388.00
C 247.86 384.43 240.26 384.73 235.77 381.23 C 231.28 377.73 226.97 375.94 221.30 372.70 C 215.64 369.45 215.13 362.22 215.00 356.00 C 214.87 349.78 217.02 341.65 224.07 342.07 C 231.13 342.49 235.94 335.68 242.00 337.00
C 240.30 333.16 239.47 328.08 238.00 324.00
C 224.52 286.56 229.20 241.37 238.00 203.00 C 246.80 164.63 244.06 120.56 255.00 83.00
C 255.10 79.25 255.55 72.48 257.00 69.00
C 260.94 59.55 275.63 56.04 281.75 47.75 C 287.87 39.47 300.44 35.52 306.75 26.75 C 313.05 17.97 318.16 7.33 327.00 0.00
L 0.00 0.00
L 0.00 1135.00 Z"/>
</g>
<g fill="None" fill-opacity="0.0" stroke="#856A58" stroke-opacity="0.98" stroke-width="0.3"><path d="
M 257.00 69.00 
C 260.49 65.26 270.38 67.91 276.00 67.00 C 281.62 66.09 290.64 66.55 297.00 66.00 C 303.36 65.45 311.21 66.26 318.00 66.00 C 324.79 65.74 333.08 66.18 340.00 66.00 C 346.92 65.82 354.28 66.62 361.00 67.00 C 367.72 67.38 374.32 68.03 381.00 68.00 C 387.68 67.97 393.76 70.69 400.22 70.78 C 406.68 70.86 413.67 72.81 419.00 72.00
C 415.08 61.25 409.27 54.35 407.67 42.33 C 406.07 30.31 403.44 16.05 405.00 3.00
C 395.05 3.77 385.85 1.66 376.00 2.00
C 374.70 2.13 374.05 2.05 372.00 3.00 C 369.94 3.94 368.28 1.06 368.00 1.00
C 364.03 0.78 359.98 1.00 356.00 1.00
C 350.50 1.00 343.67 1.83 339.00 0.00
L 327.00 0.00
C 318.16 7.33 313.05 17.97 306.75 26.75 C 300.44 35.52 287.87 39.47 281.75 47.75 C 275.63 56.04 260.94 59.55 257.00 69.00 Z"/>
</g>
<g fill="None" fill-opacity="0.0" stroke="#816451" stroke-opacity="0.08" stroke-width="0.3"><path d="
M 356.00 1.00 
C 355.96 1.00 356.00 0.00 356.00 0.00
L 339.00 0.00
C 343.67 1.83 350.50 1.00 356.00 1.00 Z"/>
</g>
<g fill="None" fill-opacity="0.0" stroke="#000000" stroke-opacity="0.00" stroke-width="0.3"><path d="
M 356.00 1.00 
C 359.98 1.00 364.03 0.78 368.00 1.00
C 370.91 1.16 373.18 1.78 376.00 2.00
C 385.85 1.66 395.05 3.77 405.00 3.00
C 403.44 16.05 406.07 30.31 407.67 42.33 C 409.27 54.35 415.08 61.25 419.00 72.00
C 419.77 74.12 420.10 76.28 420.00 79.00
C 425.79 109.57 433.85 140.89 440.32 171.68 C 446.80 202.47 455.51 232.21 462.00 263.00
C 466.32 283.50 461.03 304.96 456.00 324.00
C 462.42 329.27 471.08 334.66 472.00 344.00
C 480.12 346.26 489.78 354.21 492.97 362.03 C 496.17 369.84 493.17 371.32 490.75 376.75 C 488.32 382.17 482.98 382.01 478.97 384.97 C 474.96 387.94 468.50 386.97 464.78 389.78 C 461.05 392.58 450.56 389.46 448.00 393.00
C 448.00 408.10 433.99 426.07 428.68 439.68 C 423.37 453.29 408.21 468.08 396.00 474.00
C 396.42 478.63 395.69 483.36 396.00 488.00
C 396.60 488.29 398.32 488.00 399.00 488.00
C 414.25 488.00 432.16 486.63 447.00 490.00 C 461.85 493.37 473.24 488.79 487.22 485.22 C 501.20 481.66 519.28 483.11 531.22 489.78 C 543.17 496.44 544.56 508.09 557.23 513.77 C 569.90 519.45 564.94 539.09 572.78 549.22 C 580.61 559.36 587.70 569.26 591.00 582.00
C 595.84 600.67 594.46 622.63 598.78 641.22 C 603.10 659.82 592.63 675.69 582.25 689.25 C 571.87 702.81 567.64 719.77 552.00 727.00
C 546.55 729.52 537.41 732.81 531.00 731.00 C 524.59 729.19 514.54 731.16 509.00 730.00
C 511.30 736.54 506.93 745.56 502.25 750.25 C 497.56 754.93 487.44 754.53 482.00 758.00
C 477.98 760.57 474.73 762.69 471.00 765.00
C 464.70 768.90 457.95 774.92 452.00 780.00
C 443.41 787.34 437.66 800.71 434.07 811.07 C 430.49 821.44 432.65 823.59 431.00 832.00 C 429.35 840.41 430.78 847.03 431.98 854.02 C 433.17 861.02 432.54 869.61 435.33 874.67 C 438.12 879.73 437.22 890.70 442.00 893.00
C 462.27 886.59 484.62 886.18 505.00 880.00
C 506.93 887.94 512.03 895.48 514.77 903.23 C 517.51 910.98 521.96 924.38 510.00 926.00
C 507.51 929.38 512.60 943.42 513.00 948.00
C 515.10 943.19 529.41 938.76 534.00 939.00
C 541.26 939.38 549.39 948.70 555.00 953.00
C 586.45 977.10 619.06 998.38 651.00 1022.00
C 638.54 1044.39 619.26 1062.81 604.00 1082.00
C 615.06 1078.54 627.86 1086.77 637.23 1090.77 C 646.60 1094.77 653.69 1102.97 661.00 1110.00
C 667.32 1116.08 673.95 1122.34 679.00 1130.00
L 679.00 0.00
L 356.00 0.00
C 356.00 0.00 355.96 1.00 356.00 1.00 Z"/>
</g>
<g fill="None" fill-opacity="0.0" stroke="#806557" stroke-opacity="0.55" stroke-width="0.3"><path d="
M 376.00 2.00 
C 373.18 1.78 370.91 1.16 368.00 1.00
C 368.28 1.06 369.94 3.94 372.00 3.00 C 374.05 2.05 374.70 2.13 376.00 2.00 Z"/>
</g>
<g fill="None" fill-opacity="0.0" stroke="#9D7F6A" stroke-opacity="1.00" stroke-width="0.3"><path d="
M 257.00 69.00 
C 255.55 72.48 255.10 79.25 255.00 83.00
C 254.15 113.80 248.79 150.37 251.00 183.00 C 253.21 215.63 258.23 243.94 265.00 275.00
C 267.66 287.22 273.38 299.70 275.00 312.00
C 279.09 317.13 288.86 312.32 295.00 314.00 C 301.14 315.68 309.36 314.78 316.00 315.00
C 317.01 324.15 303.96 319.33 297.00 320.00 C 290.04 320.67 278.93 321.28 274.00 317.00
C 266.99 326.40 266.00 331.46 266.00 344.00
C 266.00 356.61 267.51 369.12 268.00 382.00
C 268.35 391.06 273.20 408.90 283.00 412.00
C 290.53 414.38 299.11 413.74 307.01 414.99 C 314.90 416.25 324.25 415.67 332.07 416.93 C 339.90 418.18 351.50 416.36 359.00 417.00 C 366.50 417.64 376.62 413.61 383.02 414.02 C 389.43 414.44 400.66 407.37 403.00 411.00
C 403.73 400.51 410.22 389.50 411.00 378.00
C 411.70 367.65 411.71 355.94 410.00 346.00
C 408.17 335.39 405.55 325.15 402.00 315.00
C 385.92 317.61 369.84 320.34 353.00 320.00
C 353.69 311.08 367.54 315.13 375.22 313.22 C 382.90 311.31 393.17 311.93 401.00 310.00
C 401.36 297.25 412.44 264.09 431.00 275.00
C 426.15 266.12 431.55 253.07 429.00 243.00 C 426.45 232.93 429.76 219.54 428.00 209.00 C 426.24 198.46 427.22 186.75 426.00 176.00 C 424.78 165.25 425.30 153.73 424.00 143.00 C 422.70 132.27 423.03 120.73 422.00 110.00 C 420.97 99.27 419.63 88.97 420.00 79.00
C 420.10 76.28 419.77 74.12 419.00 72.00
C 413.67 72.81 406.68 70.86 400.22 70.78 C 393.76 70.69 387.68 67.97 381.00 68.00 C 374.32 68.03 367.72 67.38 361.00 67.00 C 354.28 66.62 346.92 65.82 340.00 66.00 C 333.08 66.18 324.79 65.74 318.00 66.00 C 311.21 66.26 303.36 65.45 297.00 66.00 C 290.64 66.55 281.62 66.09 276.00 67.00 C 270.38 67.91 260.49 65.26 257.00 69.00 Z"/>
</g>
<g fill="None" fill-opacity="0.0" stroke="#BEA492" stroke-opacity="0.97" stroke-width="0.3"><path d="
M 431.00 275.00 
C 456.55 290.01 441.73 349.56 410.00 346.00
C 411.71 355.94 411.70 367.65 411.00 378.00
C 412.87 371.91 417.91 366.57 420.31 360.31 C 422.70 354.04 427.17 348.45 430.77 342.77 C 434.37 337.09 438.79 332.34 442.92 326.92 C 447.05 321.50 452.42 317.91 453.92 310.92 C 455.42 303.93 460.33 296.51 459.78 288.78 C 459.23 281.05 461.59 268.62 462.00 263.00
C 455.51 232.21 446.80 202.47 440.32 171.68 C 433.85 140.89 425.79 109.57 420.00 79.00
C 419.63 88.97 420.97 99.27 422.00 110.00 C 423.03 120.73 422.70 132.27 424.00 143.00 C 425.30 153.73 424.78 165.25 426.00 176.00 C 427.22 186.75 426.24 198.46 428.00 209.00 C 429.76 219.54 426.45 232.93 429.00 243.00 C 431.55 253.07 426.15 266.12 431.00 275.00 Z"/>
</g>
<g fill="None" fill-opacity="0.0" stroke="#6B5340" stroke-opacity="0.96" stroke-width="0.3"><path d="
M 238.00 324.00 
C 250.95 341.42 260.87 361.42 268.00 382.00
C 267.51 369.12 266.00 356.61 266.00 344.00
C 257.88 343.97 251.73 338.40 247.25 331.75 C 242.76 325.10 240.65 315.84 239.02 307.98 C 237.40 300.11 240.84 288.40 244.31 282.31 C 247.77 276.21 259.80 268.80 265.00 275.00
C 258.23 243.94 253.21 215.63 251.00 183.00 C 248.79 150.37 254.15 113.80 255.00 83.00
C 244.06 120.56 246.80 164.63 238.00 203.00 C 229.20 241.37 224.52 286.56 238.00 324.00 Z"/>
</g>
<g fill="None" fill-opacity="0.0" stroke="#D1B3B6" stroke-opacity="0.96" stroke-width="0.3"><path d="
M 411.00 378.00 
C 410.22 389.50 403.73 400.51 403.00 411.00
C 402.21 422.32 405.43 437.27 401.02 448.02 C 396.62 458.78 395.37 468.02 388.00 477.00
C 389.48 476.04 392.20 474.65 394.00 474.00
C 394.44 473.84 395.00 474.00 395.00 474.00
C 395.50 474.00 396.00 474.00 396.00 474.00
C 408.21 468.08 423.37 453.29 428.68 439.68 C 433.99 426.07 448.00 408.10 448.00 393.00
C 448.00 380.33 453.78 375.19 455.00 363.00 C 456.21 350.81 454.89 339.23 472.00 344.00
C 471.08 334.66 462.42 329.27 456.00 324.00
C 461.03 304.96 466.32 283.50 462.00 263.00
C 461.59 268.62 459.23 281.05 459.78 288.78 C 460.33 296.51 455.42 303.93 453.92 310.92 C 452.42 317.91 447.05 321.50 442.92 326.92 C 438.79 332.34 434.37 337.09 430.77 342.77 C 427.17 348.45 422.70 354.04 420.31 360.31 C 417.91 366.57 412.87 371.91 411.00 378.00 Z"/>
</g>
<g fill="None" fill-opacity="0.0" stroke="#1A120F" stroke-opacity="1.00" stroke-width="0.3"><path d="
M 266.00 344.00 
C 266.00 331.46 266.99 326.40 274.00 317.00
C 275.56 314.91 275.42 315.20 275.00 312.00
C 273.38 299.70 267.66 287.22 265.00 275.00
C 259.80 268.80 247.77 276.21 244.31 282.31 C 240.84 288.40 237.40 300.11 239.02 307.98 C 240.65 315.84 242.76 325.10 247.25 331.75 C 251.73 338.40 257.88 343.97 266.00 344.00
M 254.00 283.00 
C 262.43 285.11 259.56 305.73 250.33 302.67 C 241.09 299.61 244.28 280.57 254.00 283.00 Z"/>
</g>
<g fill="None" fill-opacity="0.0" stroke="#251510" stroke-opacity="1.00" stroke-width="0.3"><path d="
M 401.00 310.00 
C 400.92 312.76 401.03 312.23 402.00 315.00
C 405.55 325.15 408.17 335.39 410.00 346.00
C 441.73 349.56 456.55 290.01 431.00 275.00
C 412.44 264.09 401.36 297.25 401.00 310.00
M 426.00 283.00 
C 434.10 285.76 430.16 305.94 421.33 302.67 C 412.49 299.40 416.61 279.80 426.00 283.00 Z"/>
</g>
<g fill="None" fill-opacity="0.0" stroke="#F0EFEF" stroke-opacity="1.00" stroke-width="0.3"><path d="
M 254.00 283.00 
C 244.28 280.57 241.09 299.61 250.33 302.67 C 259.56 305.73 262.43 285.11 254.00 283.00 Z"/>
</g>
<g fill="None" fill-opacity="0.0" stroke="#F6F4F3" stroke-opacity="1.00" stroke-width="0.3"><path d="
M 426.00 283.00 
C 416.61 279.80 412.49 299.40 421.33 302.67 C 430.16 305.94 434.10 285.76 426.00 283.00 Z"/>
</g>
<g fill="None" fill-opacity="0.0" stroke="#442816" stroke-opacity="1.00" stroke-width="0.3"><path d="
M 402.00 315.00 
C 401.03 312.23 400.92 312.76 401.00 310.00
C 393.17 311.93 382.90 311.31 375.22 313.22 C 367.54 315.13 353.69 311.08 353.00 320.00
C 369.84 320.34 385.92 317.61 402.00 315.00 Z"/>
</g>
<g fill="None" fill-opacity="0.0" stroke="#472B18" stroke-opacity="1.00" stroke-width="0.3"><path d="
M 274.00 317.00 
C 278.93 321.28 290.04 320.67 297.00 320.00 C 303.96 319.33 317.01 324.15 316.00 315.00
C 309.36 314.78 301.14 315.68 295.00 314.00 C 288.86 312.32 279.09 317.13 275.00 312.00
C 275.42 315.20 275.56 314.91 274.00 317.00 Z"/>
</g>
<g fill="None" fill-opacity="0.0" stroke="#656073" stroke-opacity="0.96" stroke-width="0.3"><path d="
M 242.00 337.00 
C 248.80 352.39 249.95 371.39 251.00 388.00
C 252.07 404.87 257.15 423.24 262.03 438.97 C 266.90 454.71 281.53 461.21 293.00 470.00
C 291.18 465.94 288.91 459.26 287.02 453.98 C 285.14 448.69 282.81 439.10 282.22 433.78 C 281.63 428.46 278.14 414.14 283.00 412.00
C 273.20 408.90 268.35 391.06 268.00 382.00
C 260.87 361.42 250.95 341.42 238.00 324.00
C 239.47 328.08 240.30 333.16 242.00 337.00 Z"/>
</g>
<g fill="None" fill-opacity="0.0" stroke="#1F100F" stroke-opacity="0.96" stroke-width="0.3"><path d="
M 251.00 388.00 
C 249.95 371.39 248.80 352.39 242.00 337.00
C 235.94 335.68 231.13 342.49 224.07 342.07 C 217.02 341.65 214.87 349.78 215.00 356.00 C 215.13 362.22 215.64 369.45 221.30 372.70 C 226.97 375.94 231.28 377.73 235.77 381.23 C 240.26 384.73 247.86 384.43 251.00 388.00 Z"/>
</g>
<g fill="None" fill-opacity="0.0" stroke="#361E14" stroke-opacity="0.97" stroke-width="0.3"><path d="
M 448.00 393.00 
C 450.56 389.46 461.05 392.58 464.78 389.78 C 468.50 386.97 474.96 387.94 478.97 384.97 C 482.98 382.01 488.32 382.17 490.75 376.75 C 493.17 371.32 496.17 369.84 492.97 362.03 C 489.78 354.21 480.12 346.26 472.00 344.00
C 454.89 339.23 456.21 350.81 455.00 363.00 C 453.78 375.19 448.00 380.33 448.00 393.00 Z"/>
</g>
<g fill="None" fill-opacity="0.0" stroke="#493324" stroke-opacity="1.00" stroke-width="0.3"><path d="
M 283.00 412.00 
C 278.14 414.14 281.63 428.46 282.22 433.78 C 282.81 439.10 285.14 448.69 287.02 453.98 C 288.91 459.26 291.18 465.94 293.00 470.00
C 298.02 481.20 310.00 490.68 321.00 495.00
C 325.32 496.70 331.77 497.59 336.00 498.00
C 346.48 499.01 357.81 496.17 367.07 493.07 C 376.33 489.98 380.20 482.08 388.00 477.00
C 395.37 468.02 396.62 458.78 401.02 448.02 C 405.43 437.27 402.21 422.32 403.00 411.00
C 400.66 407.37 389.43 414.44 383.02 414.02 C 376.62 413.61 366.50 417.64 359.00 417.00 C 351.50 416.36 339.90 418.18 332.07 416.93 C 324.25 415.67 314.90 416.25 307.01 414.99 C 299.11 413.74 290.53 414.38 283.00 412.00 Z"/>
</g>
<g fill="None" fill-opacity="0.0" stroke="#BAA6A0" stroke-opacity="1.00" stroke-width="0.3"><path d="
M 388.00 477.00 
C 380.20 482.08 376.33 489.98 367.07 493.07 C 357.81 496.17 346.48 499.01 336.00 498.00
C 335.10 498.29 333.92 497.77 333.00 498.00
C 332.89 513.43 352.15 515.44 360.00 526.00
C 371.05 513.25 379.20 496.89 394.00 488.00
C 395.57 484.57 393.66 477.81 394.00 474.00
C 392.20 474.65 389.48 476.04 388.00 477.00 Z"/>
</g>
<g fill="None" fill-opacity="0.0" stroke="#B5A19A" stroke-opacity="0.71" stroke-width="0.3"><path d="
M 394.00 488.00 
C 394.78 487.88 398.37 488.04 399.00 488.00
C 398.32 488.00 396.60 488.29 396.00 488.00
C 393.47 486.75 395.24 476.67 395.00 474.00
C 395.00 474.00 394.44 473.84 394.00 474.00
C 393.66 477.81 395.57 484.57 394.00 488.00 Z"/>
</g>
<g fill="None" fill-opacity="0.0" stroke="#AE9F9C" stroke-opacity="0.06" stroke-width="0.3"><path d="
M 396.00 488.00 
C 395.69 483.36 396.42 478.63 396.00 474.00
C 396.00 474.00 395.50 474.00 395.00 474.00
C 395.24 476.67 393.47 486.75 396.00 488.00 Z"/>
</g>
<g fill="None" fill-opacity="0.0" stroke="#A59180" stroke-opacity="0.98" stroke-width="0.3"><path d="
M 171.00 502.00 
C 173.67 502.61 176.29 503.40 179.00 504.00
C 192.40 506.97 209.52 494.57 222.23 500.77 C 234.94 506.97 246.34 511.59 257.23 519.77 C 268.12 527.95 276.74 535.02 286.25 544.75 C 295.75 554.49 302.91 564.84 310.00 576.00
C 310.17 576.27 310.83 576.67 311.00 577.00
C 322.80 578.25 333.85 569.08 346.01 572.01 C 358.16 574.93 367.84 564.66 378.00 565.00
C 377.52 564.82 376.24 563.63 376.00 563.00
C 388.53 557.75 398.28 550.15 410.08 543.08 C 421.89 536.01 430.37 524.27 442.75 534.25 C 455.12 544.24 474.27 540.38 489.00 543.00
C 494.97 543.00 501.04 542.68 507.00 543.00
C 516.20 543.50 522.86 548.88 531.68 551.32 C 540.49 553.77 546.62 558.99 556.03 560.98 C 565.43 562.96 567.56 573.24 569.00 582.00
C 576.33 581.85 583.67 582.11 591.00 582.00
C 587.70 569.26 580.61 559.36 572.78 549.22 C 564.94 539.09 569.90 519.45 557.23 513.77 C 544.56 508.09 543.17 496.44 531.22 489.78 C 519.28 483.11 501.20 481.66 487.22 485.22 C 473.24 488.79 461.85 493.37 447.00 490.00 C 432.16 486.63 414.25 488.00 399.00 488.00
C 398.37 488.04 394.78 487.88 394.00 488.00
C 379.20 496.89 371.05 513.25 360.00 526.00
C 352.15 515.44 332.89 513.43 333.00 498.00
C 333.92 497.77 335.10 498.29 336.00 498.00
C 331.77 497.59 325.32 496.70 321.00 495.00
C 313.81 494.11 307.05 496.00 300.00 496.00
C 292.28 497.63 281.76 497.86 274.00 496.00
C 254.85 495.62 233.13 492.53 215.67 486.33 C 198.21 480.13 182.88 488.39 171.00 502.00 Z"/>
</g>
<g fill="None" fill-opacity="0.0" stroke="#A29080" stroke-opacity="0.56" stroke-width="0.3"><path d="
M 300.00 496.00 
C 291.34 496.00 282.66 496.17 274.00 496.00
C 281.76 497.86 292.28 497.63 300.00 496.00 Z"/>
</g>
<g fill="None" fill-opacity="0.0" stroke="#432E25" stroke-opacity="0.99" stroke-width="0.3"><path d="
M 179.00 504.00 
C 182.33 507.63 167.79 509.42 164.32 510.32 C 160.85 511.23 151.18 514.55 146.93 515.93 C 142.67 517.30 135.83 519.90 133.00 521.00
C 121.68 525.40 119.83 526.90 109.75 533.75 C 99.68 540.61 109.34 551.63 119.77 545.77 C 130.21 539.91 135.59 540.04 146.00 536.00
C 159.82 530.64 174.39 527.27 189.00 524.00
C 190.33 536.47 196.47 552.64 211.00 554.00
C 207.92 563.72 200.46 579.01 211.00 587.00
C 220.96 591.60 235.30 585.38 246.00 587.00 C 256.70 588.62 269.24 584.89 279.02 583.02 C 288.80 581.16 303.35 581.97 310.00 576.00
C 302.91 564.84 295.75 554.49 286.25 544.75 C 276.74 535.02 268.12 527.95 257.23 519.77 C 246.34 511.59 234.94 506.97 222.23 500.77 C 209.52 494.57 192.40 506.97 179.00 504.00 Z"/>
</g>
<g fill="None" fill-opacity="0.0" stroke="#271715" stroke-opacity="0.93" stroke-width="0.3"><path d="
M 133.00 521.00 
C 135.83 519.90 142.67 517.30 146.93 515.93 C 151.18 514.55 160.85 511.23 164.32 510.32 C 167.79 509.42 182.33 507.63 179.00 504.00
C 176.29 503.40 173.67 502.61 171.00 502.00
C 162.04 499.95 146.40 499.30 138.02 503.02 C 129.64 506.75 118.32 504.58 112.93 513.93 C 107.54 523.27 131.91 521.15 133.00 521.00 Z"/>
</g>
<g fill="None" fill-opacity="0.0" stroke="#9D7E69" stroke-opacity="0.99" stroke-width="0.3"><path d="
M 146.00 536.00 
C 140.87 541.33 140.92 549.64 136.99 555.99 C 133.07 562.34 134.61 572.25 130.98 578.98 C 127.35 585.71 130.36 597.49 127.00 604.00
C 130.48 603.08 139.15 601.10 144.00 602.00
C 148.52 600.92 147.04 599.18 154.02 598.02 C 161.01 596.87 170.67 593.77 178.00 594.00 C 185.33 594.23 184.09 591.08 189.67 591.67 C 195.25 592.26 197.13 588.20 202.00 590.00 C 206.87 591.80 210.54 587.09 211.00 587.00
C 200.46 579.01 207.92 563.72 211.00 554.00
C 196.47 552.64 190.33 536.47 189.00 524.00
C 174.39 527.27 159.82 530.64 146.00 536.00 Z"/>
</g>
<g fill="None" fill-opacity="0.0" stroke="#442E25" stroke-opacity="1.00" stroke-width="0.3"><path d="
M 378.00 565.00 
C 393.55 565.53 412.95 569.90 427.07 573.93 C 441.20 577.95 457.38 583.35 468.70 591.31 C 480.01 599.26 494.48 611.52 493.00 626.00
C 493.78 625.22 499.83 621.86 502.00 620.00
C 522.18 602.75 541.09 582.56 569.00 582.00
C 567.56 573.24 565.43 562.96 556.03 560.98 C 546.62 558.99 540.49 553.77 531.68 551.32 C 522.86 548.88 516.20 543.50 507.00 543.00
C 501.50 543.24 494.50 543.53 489.00 543.00
C 474.27 540.38 455.12 544.24 442.75 534.25 C 430.37 524.27 421.89 536.01 410.08 543.08 C 398.28 550.15 388.53 557.75 376.00 563.00
C 376.24 563.63 377.52 564.82 378.00 565.00 Z"/>
</g>
<g fill="None" fill-opacity="0.0" stroke="#735E4E" stroke-opacity="1.00" stroke-width="0.3"><path d="
M 507.00 543.00 
C 501.04 542.68 494.97 543.00 489.00 543.00
C 494.50 543.53 501.50 543.24 507.00 543.00 Z"/>
</g>
<g fill="None" fill-opacity="0.0" stroke="#F4DCD3" stroke-opacity="1.00" stroke-width="0.3"><path d="
M 311.00 577.00 
C 314.78 584.57 320.39 590.76 325.25 597.75 C 330.12 604.73 335.51 611.57 340.30 618.70 C 345.10 625.82 350.65 632.20 355.75 639.25 C 360.86 646.30 364.30 653.59 371.25 659.75 C 378.20 665.91 386.74 668.84 396.02 670.98 C 405.31 673.11 419.78 672.12 429.01 670.01 C 438.24 667.89 445.86 663.03 454.23 659.23 C 462.60 655.43 467.41 648.71 475.25 644.25 C 483.09 639.79 487.43 631.57 493.00 626.00
C 494.48 611.52 480.01 599.26 468.70 591.31 C 457.38 583.35 441.20 577.95 427.07 573.93 C 412.95 569.90 393.55 565.53 378.00 565.00
C 367.84 564.66 358.16 574.93 346.01 572.01 C 333.85 569.08 322.80 578.25 311.00 577.00 Z"/>
</g>
<g fill="None" fill-opacity="0.0" stroke="#816559" stroke-opacity="1.00" stroke-width="0.3"><path d="
M 211.00 587.00 
C 210.54 587.09 206.87 591.80 202.00 590.00 C 197.13 588.20 195.25 592.26 189.67 591.67 C 184.09 591.08 185.33 594.23 178.00 594.00 C 170.67 593.77 161.01 596.87 154.02 598.02 C 147.04 599.18 148.52 600.92 144.00 602.00
C 154.23 603.90 162.92 612.43 171.75 618.25 C 180.57 624.08 185.97 633.33 191.77 642.23 C 197.57 651.13 199.60 669.51 197.22 680.22 C 194.84 690.94 192.79 704.63 186.08 713.08 C 179.37 721.52 176.11 733.79 168.00 740.00
C 180.19 736.60 196.20 731.67 207.00 725.00
C 208.05 724.35 208.94 723.57 210.00 723.00
C 221.49 716.87 234.81 714.38 246.74 708.74 C 258.67 703.10 271.27 700.28 283.25 694.25 C 295.22 688.21 313.45 692.89 326.00 696.00
C 334.06 698.00 342.36 700.41 350.68 702.32 C 359.00 704.24 367.40 706.10 375.67 708.33 C 383.94 710.56 392.46 712.60 401.01 713.99 C 409.56 715.39 418.41 718.09 427.00 719.00 C 435.60 719.91 431.34 719.60 439.67 721.33 C 448.00 723.06 459.40 723.80 468.00 724.00 C 476.60 724.20 475.37 726.32 482.01 725.99 C 488.65 725.66 489.98 728.69 496.00 727.00 C 502.02 725.31 505.14 729.20 509.00 730.00
C 514.54 731.16 524.59 729.19 531.00 731.00 C 537.41 732.81 546.55 729.52 552.00 727.00
C 531.46 717.99 509.57 710.95 496.25 689.75 C 482.92 668.56 483.51 638.49 502.00 620.00
C 499.83 621.86 493.78 625.22 493.00 626.00
C 487.43 631.57 483.09 639.79 475.25 644.25 C 467.41 648.71 462.60 655.43 454.23 659.23 C 445.86 663.03 438.24 667.89 429.01 670.01 C 419.78 672.12 405.31 673.11 396.02 670.98 C 386.74 668.84 378.20 665.91 371.25 659.75 C 364.30 653.59 360.86 646.30 355.75 639.25 C 350.65 632.20 345.10 625.82 340.30 618.70 C 335.51 611.57 330.12 604.73 325.25 597.75 C 320.39 590.76 314.78 584.57 311.00 577.00
C 310.83 576.67 310.17 576.27 310.00 576.00
C 303.35 581.97 288.80 581.16 279.02 583.02 C 269.24 584.89 256.70 588.62 246.00 587.00 C 235.30 585.38 220.96 591.60 211.00 587.00 Z"/>
</g>
<g fill="None" fill-opacity="0.0" stroke="#D0B1A7" stroke-opacity="0.99" stroke-width="0.3"><path d="
M 502.00 620.00 
C 483.51 638.49 482.92 668.56 496.25 689.75 C 509.57 710.95 531.46 717.99 552.00 727.00
C 567.64 719.77 571.87 702.81 582.25 689.25 C 592.63 675.69 603.10 659.82 598.78 641.22 C 594.46 622.63 595.84 600.67 591.00 582.00
C 583.67 582.11 576.33 581.85 569.00 582.00
C 541.09 582.56 522.18 602.75 502.00 620.00 Z"/>
</g>
<g fill="None" fill-opacity="0.0" stroke="#D0B1A7" stroke-opacity="0.98" stroke-width="0.3"><path d="
M 127.00 604.00 
C 117.87 606.40 110.88 613.91 103.23 619.23 C 95.59 624.55 89.83 631.21 85.93 640.93 C 82.02 650.64 82.55 663.97 81.00 675.00 C 79.45 686.03 80.47 698.03 89.75 704.25 C 99.03 710.46 101.72 716.59 109.75 723.25 C 117.78 729.90 121.93 738.00 133.78 738.22 C 145.63 738.45 155.75 743.42 168.00 740.00
C 176.11 733.79 179.37 721.52 186.08 713.08 C 192.79 704.63 194.84 690.94 197.22 680.22 C 199.60 669.51 197.57 651.13 191.77 642.23 C 185.97 633.33 180.57 624.08 171.75 618.25 C 162.92 612.43 154.23 603.90 144.00 602.00
C 139.15 601.10 130.48 603.08 127.00 604.00 Z"/>
</g>
<g fill="None" fill-opacity="0.0" stroke="#A6917F" stroke-opacity="1.00" stroke-width="0.3"><path d="
M 210.00 723.00 
C 210.50 722.93 217.75 727.62 223.22 726.78 C 228.69 725.93 235.32 727.95 242.00 727.00 C 248.68 726.05 250.07 726.91 258.02 724.03 C 265.98 721.14 276.04 715.55 284.08 712.08 C 292.11 708.60 291.97 709.66 298.08 707.08 C 304.18 704.49 306.58 703.18 312.07 702.07 C 317.56 700.97 321.45 696.28 326.00 696.00
C 313.45 692.89 295.22 688.21 283.25 694.25 C 271.27 700.28 258.67 703.10 246.74 708.74 C 234.81 714.38 221.49 716.87 210.00 723.00 Z"/>
</g>
<g fill="None" fill-opacity="0.0" stroke="#997F79" stroke-opacity="0.99" stroke-width="0.3"><path d="
M 210.00 723.00 
C 208.94 723.57 208.05 724.35 207.00 725.00
C 203.83 731.51 209.17 742.19 212.00 747.00
C 214.32 743.02 226.54 748.58 232.00 747.00 C 237.46 745.42 246.79 748.06 253.22 746.22 C 259.66 744.38 264.62 745.08 272.07 743.07 C 279.53 741.06 279.92 741.67 289.07 738.07 C 298.23 734.48 310.15 728.22 317.10 722.10 C 324.05 715.98 325.52 718.95 332.02 715.02 C 338.53 711.10 344.67 712.41 352.00 712.00 C 359.33 711.59 364.30 713.26 371.02 714.98 C 377.75 716.69 379.82 718.22 386.69 721.31 C 393.57 724.40 392.38 724.96 400.75 729.25 C 409.11 733.55 419.55 741.81 428.08 745.92 C 436.61 750.03 436.85 748.96 444.07 751.93 C 451.30 754.89 454.64 754.93 462.07 755.93 C 469.51 756.93 476.85 755.49 484.00 755.00
C 483.70 756.25 482.17 756.71 482.00 758.00
C 487.44 754.53 497.56 754.93 502.25 750.25 C 506.93 745.56 511.30 736.54 509.00 730.00
C 505.14 729.20 502.02 725.31 496.00 727.00 C 489.98 728.69 488.65 725.66 482.01 725.99 C 475.37 726.32 476.60 724.20 468.00 724.00 C 459.40 723.80 448.00 723.06 439.67 721.33 C 431.34 719.60 435.60 719.91 427.00 719.00 C 418.41 718.09 409.56 715.39 401.01 713.99 C 392.46 712.60 383.94 710.56 375.67 708.33 C 367.40 706.10 359.00 704.24 350.68 702.32 C 342.36 700.41 334.06 698.00 326.00 696.00
C 321.45 696.28 317.56 700.97 312.07 702.07 C 306.58 703.18 304.18 704.49 298.08 707.08 C 291.97 709.66 292.11 708.60 284.08 712.08 C 276.04 715.55 265.98 721.14 258.02 724.03 C 250.07 726.91 248.68 726.05 242.00 727.00 C 235.32 727.95 228.69 725.93 223.22 726.78 C 217.75 727.62 210.50 722.93 210.00 723.00 Z"/>
</g>
<g fill="None" fill-opacity="0.0" stroke="#8D7267" stroke-opacity="0.99" stroke-width="0.3"><path d="
M 212.00 747.00 
C 221.46 763.10 246.35 768.77 261.00 780.00
C 280.86 780.07 291.58 762.00 304.75 748.75 C 317.92 735.50 340.61 728.28 360.00 729.00 C 379.39 729.72 396.93 741.34 413.70 750.30 C 430.46 759.26 451.86 770.40 471.00 765.00
C 474.73 762.69 477.98 760.57 482.00 758.00
C 482.17 756.71 483.70 756.25 484.00 755.00
C 476.85 755.49 469.51 756.93 462.07 755.93 C 454.64 754.93 451.30 754.89 444.07 751.93 C 436.85 748.96 436.61 750.03 428.08 745.92 C 419.55 741.81 409.11 733.55 400.75 729.25 C 392.38 724.96 393.57 724.40 386.69 721.31 C 379.82 718.22 377.75 716.69 371.02 714.98 C 364.30 713.26 359.33 711.59 352.00 712.00 C 344.67 712.41 338.53 711.10 332.02 715.02 C 325.52 718.95 324.05 715.98 317.10 722.10 C 310.15 728.22 298.23 734.48 289.07 738.07 C 279.92 741.67 279.53 741.06 272.07 743.07 C 264.62 745.08 259.66 744.38 253.22 746.22 C 246.79 748.06 237.46 745.42 232.00 747.00 C 226.54 748.58 214.32 743.02 212.00 747.00 Z"/>
</g>
<g fill="None" fill-opacity="0.0" stroke="#634F46" stroke-opacity="0.99" stroke-width="0.3"><path d="
M 261.00 780.00 
C 266.11 783.92 273.22 792.20 275.00 798.00
C 278.64 799.23 283.34 791.79 285.90 789.90 C 288.46 788.02 292.82 783.16 294.92 779.92 C 297.01 776.67 302.55 772.44 304.00 769.00
C 305.38 748.66 330.74 742.64 348.00 740.00 C 365.27 737.36 390.76 745.90 402.75 759.25 C 414.74 772.59 435.13 785.27 452.00 780.00
C 457.95 774.92 464.70 768.90 471.00 765.00
C 451.86 770.40 430.46 759.26 413.70 750.30 C 396.93 741.34 379.39 729.72 360.00 729.00 C 340.61 728.28 317.92 735.50 304.75 748.75 C 291.58 762.00 280.86 780.07 261.00 780.00 Z"/>
</g>
<g fill="None" fill-opacity="0.0" stroke="#F4DED9" stroke-opacity="1.00" stroke-width="0.3"><path d="
M 304.00 769.00 
C 300.93 814.11 300.13 860.08 285.00 902.00
C 284.47 903.47 282.58 904.17 283.00 906.00
C 309.74 907.52 340.75 907.65 367.00 905.00 C 393.25 902.35 418.02 900.07 442.00 893.00
C 437.22 890.70 438.12 879.73 435.33 874.67 C 432.54 869.61 433.17 861.02 431.98 854.02 C 430.78 847.03 429.35 840.41 431.00 832.00 C 432.65 823.59 430.49 821.44 434.07 811.07 C 437.66 800.71 443.41 787.34 452.00 780.00
C 435.13 785.27 414.74 772.59 402.75 759.25 C 390.76 745.90 365.27 737.36 348.00 740.00 C 330.74 742.64 305.38 748.66 304.00 769.00 Z"/>
</g>
<g fill="None" fill-opacity="0.0" stroke="#726473" stroke-opacity="0.98" stroke-width="0.3"><path d="
M 275.00 798.00 
C 279.62 813.00 273.89 831.98 272.93 846.93 C 271.97 861.88 266.92 876.23 265.00 891.00
C 264.73 893.04 261.92 901.44 263.00 903.00
C 269.05 903.68 280.36 908.37 285.00 902.00
C 300.13 860.08 300.93 814.11 304.00 769.00
C 302.55 772.44 297.01 776.67 294.92 779.92 C 292.82 783.16 288.46 788.02 285.90 789.90 C 283.34 791.79 278.64 799.23 275.00 798.00 Z"/>
</g>
<g fill="None" fill-opacity="0.0" stroke="#B2968D" stroke-opacity="1.00" stroke-width="0.3"><path d="
M 164.00 965.00 
C 164.85 972.16 173.13 980.38 177.25 986.75 C 181.36 993.12 187.89 999.34 194.25 1004.75 C 200.61 1010.16 209.36 1014.05 217.68 1017.32 C 226.00 1020.59 236.26 1023.02 246.01 1023.99 C 255.76 1024.97 269.71 1023.96 279.22 1022.22 C 288.73 1020.48 300.06 1019.16 309.02 1016.02 C 317.99 1012.89 326.62 1011.02 335.02 1007.03 C 343.43 1003.03 351.75 999.81 360.00 996.00
C 384.57 984.64 410.58 971.16 436.03 961.03 C 461.47 950.89 485.69 934.63 510.00 926.00
C 521.96 924.38 517.51 910.98 514.77 903.23 C 512.03 895.48 506.93 887.94 505.00 880.00
C 484.62 886.18 462.27 886.59 442.00 893.00
C 418.02 900.07 393.25 902.35 367.00 905.00 C 340.75 907.65 309.74 907.52 283.00 906.00
C 282.58 904.17 284.47 903.47 285.00 902.00
C 280.36 908.37 269.05 903.68 263.00 903.00
C 241.10 900.55 217.92 894.56 201.00 880.00
C 194.42 882.55 195.77 896.27 191.77 901.77 C 187.77 907.27 186.09 916.53 182.92 922.92 C 179.76 929.32 176.61 937.66 173.31 944.31 C 170.00 950.95 167.32 958.50 164.00 965.00 Z"/>
</g>
<g fill="None" fill-opacity="0.0" stroke="#361C15" stroke-opacity="0.93" stroke-width="0.3"><path d="
M 263.00 903.00 
C 261.92 901.44 264.73 893.04 265.00 891.00
C 263.13 886.49 251.91 885.20 247.00 884.00 C 242.09 882.80 230.83 881.16 225.00 881.00 C 219.17 880.84 206.74 877.77 201.00 880.00
C 217.92 894.56 241.10 900.55 263.00 903.00 Z"/>
</g>
<g fill="None" fill-opacity="0.0" stroke="#DAC2AF" stroke-opacity="1.00" stroke-width="0.3"><path d="
M 360.00 996.00 
C 370.81 996.17 379.97 1003.94 391.22 1004.78 C 402.48 1005.61 416.27 1009.32 428.00 1009.00 C 439.73 1008.68 455.67 1008.95 466.00 1006.00 C 476.34 1003.05 487.27 999.87 495.23 994.23 C 503.19 988.58 515.07 984.06 516.00 974.00
C 516.77 965.62 513.75 956.51 513.00 948.00
C 512.60 943.42 507.51 929.38 510.00 926.00
C 485.69 934.63 461.47 950.89 436.03 961.03 C 410.58 971.16 384.57 984.64 360.00 996.00 Z"/>
</g>
<g fill="None" fill-opacity="0.0" stroke="#371C14" stroke-opacity="0.96" stroke-width="0.3"><path d="
M 513.00 948.00 
C 513.75 956.51 516.77 965.62 516.00 974.00
C 516.65 973.07 523.68 969.06 524.30 965.30 C 524.93 961.55 530.65 956.40 530.92 952.92 C 531.20 949.45 537.74 941.32 534.00 939.00
C 529.41 938.76 515.10 943.19 513.00 948.00 Z"/>
</g>
<g fill="None" fill-opacity="0.0" stroke="#6C4B42" stroke-opacity="1.00" stroke-width="0.3"><path d="
M 516.00 974.00 
C 515.07 984.06 503.19 988.58 495.23 994.23 C 487.27 999.87 476.34 1003.05 466.00 1006.00 C 455.67 1008.95 439.73 1008.68 428.00 1009.00 C 416.27 1009.32 402.48 1005.61 391.22 1004.78 C 379.97 1003.94 370.81 996.17 360.00 996.00
C 351.75 999.81 343.43 1003.03 335.02 1007.03 C 326.62 1011.02 317.99 1012.89 309.02 1016.02 C 300.06 1019.16 288.73 1020.48 279.22 1022.22 C 269.71 1023.96 255.76 1024.97 246.01 1023.99 C 236.26 1023.02 226.00 1020.59 217.68 1017.32 C 209.36 1014.05 200.61 1010.16 194.25 1004.75 C 187.89 999.34 181.36 993.12 177.25 986.75 C 173.13 980.38 164.85 972.16 164.00 965.00
C 157.94 976.85 145.25 989.75 136.00 999.00
C 134.98 1005.94 142.78 1016.23 144.98 1023.03 C 147.17 1029.82 153.92 1036.44 158.75 1042.25 C 163.59 1048.05 170.18 1053.94 176.25 1058.75 C 182.31 1063.57 189.19 1067.72 196.23 1071.77 C 203.27 1075.83 211.19 1079.86 219.08 1082.92 C 226.96 1085.99 234.79 1089.23 243.22 1091.78 C 251.66 1094.33 260.31 1096.70 269.22 1098.78 C 278.14 1100.86 288.67 1102.75 298.01 1103.99 C 307.34 1105.23 317.32 1108.08 327.01 1107.99 C 336.70 1107.90 349.25 1112.23 359.00 1110.00
C 365.64 1108.48 370.91 1101.95 377.23 1099.23 C 383.55 1096.51 388.87 1091.39 395.08 1088.08 C 401.30 1084.77 407.82 1080.44 414.08 1077.08 C 420.33 1073.71 425.90 1069.54 432.23 1066.23 C 438.56 1062.92 444.89 1058.62 451.23 1055.23 C 457.57 1051.84 463.82 1048.59 470.08 1045.08 C 476.34 1041.57 483.12 1038.82 489.25 1035.25 C 495.37 1031.67 501.44 1027.30 505.75 1021.75 C 510.07 1016.21 516.26 1012.66 519.92 1006.92 C 523.58 1001.17 529.37 995.42 532.75 989.75 C 536.14 984.08 541.96 977.83 543.92 971.92 C 545.88 966.02 555.83 959.17 555.00 953.00
C 549.39 948.70 541.26 939.38 534.00 939.00
C 537.74 941.32 531.20 949.45 530.92 952.92 C 530.65 956.40 524.93 961.55 524.30 965.30 C 523.68 969.06 516.65 973.07 516.00 974.00 Z"/>
</g>
<g fill="None" fill-opacity="0.0" stroke="#C5A396" stroke-opacity="0.99" stroke-width="0.3"><path d="
M 359.00 1110.00 
C 354.94 1116.43 354.69 1127.65 348.75 1133.75 C 342.80 1139.84 339.79 1147.48 332.75 1152.75 C 325.71 1158.03 321.16 1163.11 314.25 1168.25 C 307.34 1173.39 300.96 1177.91 293.77 1182.77 C 286.58 1187.63 279.26 1190.92 271.77 1195.77 C 264.28 1200.62 257.10 1202.42 248.98 1206.98 C 240.85 1211.53 232.08 1215.16 222.00 1213.00 C 211.92 1210.84 201.28 1211.65 191.00 1210.00 C 180.72 1208.35 169.42 1208.16 159.00 1207.00 C 148.58 1205.84 137.85 1204.75 128.00 1203.00
C 142.84 1197.11 157.86 1191.92 173.00 1187.00
C 139.45 1182.84 102.50 1180.78 69.00 1180.00
C 64.99 1185.72 71.73 1195.45 70.00 1202.00 C 68.27 1208.55 72.41 1216.66 72.93 1223.07 C 73.44 1229.49 75.31 1236.87 76.98 1243.02 C 78.64 1249.18 81.62 1253.82 82.93 1260.07 C 84.23 1266.33 86.22 1275.36 85.00 1282.00 C 83.78 1288.64 82.11 1295.12 80.23 1301.23 C 78.35 1307.34 77.01 1312.56 74.08 1318.08 C 71.15 1323.59 66.82 1329.10 74.08 1331.92 C 81.33 1334.75 84.70 1336.30 92.00 1338.00
C 112.89 1342.86 132.30 1348.09 154.00 1347.00
C 170.45 1346.18 184.28 1332.47 193.70 1319.70 C 203.13 1306.93 210.18 1290.78 218.75 1276.75 C 227.33 1262.73 232.30 1247.50 247.23 1237.23 C 262.16 1226.96 283.45 1242.56 301.22 1239.22 C 318.99 1235.88 337.95 1234.57 351.00 1221.00
C 353.19 1218.73 355.00 1216.26 358.00 1215.00
C 357.05 1218.55 354.18 1221.95 351.00 1224.00
C 346.92 1228.41 344.38 1234.16 341.00 1239.00
C 366.88 1231.70 389.95 1216.75 414.00 1205.00
C 409.03 1215.45 398.46 1223.27 394.00 1234.00
C 403.06 1233.65 415.92 1242.19 422.92 1235.92 C 429.92 1229.64 435.35 1223.91 441.75 1216.75 C 448.15 1209.59 453.47 1204.11 459.75 1197.75 C 466.02 1191.38 470.80 1181.28 481.00 1181.00
C 486.55 1177.77 493.45 1172.22 500.23 1169.23 C 507.01 1166.24 512.81 1160.90 519.08 1157.08 C 525.36 1153.26 531.18 1148.26 536.75 1143.75 C 542.33 1139.25 548.79 1134.73 553.75 1129.75 C 558.72 1124.77 565.17 1119.34 569.75 1114.75 C 574.34 1110.16 581.15 1102.56 585.25 1099.25 C 589.34 1095.94 598.21 1082.77 602.00 1086.00
C 601.62 1082.32 601.82 1084.66 604.00 1082.00
C 619.26 1062.81 638.54 1044.39 651.00 1022.00
C 619.06 998.38 586.45 977.10 555.00 953.00
C 555.83 959.17 545.88 966.02 543.92 971.92 C 541.96 977.83 536.14 984.08 532.75 989.75 C 529.37 995.42 523.58 1001.17 519.92 1006.92 C 516.26 1012.66 510.07 1016.21 505.75 1021.75 C 501.44 1027.30 495.37 1031.67 489.25 1035.25 C 483.12 1038.82 476.34 1041.57 470.08 1045.08 C 463.82 1048.59 457.57 1051.84 451.23 1055.23 C 444.89 1058.62 438.56 1062.92 432.23 1066.23 C 425.90 1069.54 420.33 1073.71 414.08 1077.08 C 407.82 1080.44 401.30 1084.77 395.08 1088.08 C 388.87 1091.39 383.55 1096.51 377.23 1099.23 C 370.91 1101.95 365.64 1108.48 359.00 1110.00
M 419.00 1201.00 
C 419.16 1203.69 416.09 1204.17 415.00 1206.00
C 412.39 1203.29 416.62 1201.06 419.00 1201.00 Z"/>
</g>
<g fill="None" fill-opacity="0.0" stroke="#FBE6DB" stroke-opacity="0.99" stroke-width="0.3"><path d="
M 0.00 1135.00 
L 0.00 1138.00
C 21.06 1138.46 42.24 1143.60 63.00 1142.00
C 65.88 1145.94 61.03 1148.63 59.00 1151.00
C 59.35 1150.34 59.41 1153.10 57.25 1155.25 C 55.08 1157.39 52.35 1157.33 53.00 1157.00
C 45.71 1164.08 35.49 1170.13 31.00 1178.00
C 44.02 1177.27 56.20 1179.81 69.00 1180.00
C 102.50 1180.78 139.45 1182.84 173.00 1187.00
C 157.86 1191.92 142.84 1197.11 128.00 1203.00
C 137.85 1204.75 148.58 1205.84 159.00 1207.00 C 169.42 1208.16 180.72 1208.35 191.00 1210.00 C 201.28 1211.65 211.92 1210.84 222.00 1213.00 C 232.08 1215.16 240.85 1211.53 248.98 1206.98 C 257.10 1202.42 264.28 1200.62 271.77 1195.77 C 279.26 1190.92 286.58 1187.63 293.77 1182.77 C 300.96 1177.91 307.34 1173.39 314.25 1168.25 C 321.16 1163.11 325.71 1158.03 332.75 1152.75 C 339.79 1147.48 342.80 1139.84 348.75 1133.75 C 354.69 1127.65 354.94 1116.43 359.00 1110.00
C 349.25 1112.23 336.70 1107.90 327.01 1107.99 C 317.32 1108.08 307.34 1105.23 298.01 1103.99 C 288.67 1102.75 278.14 1100.86 269.22 1098.78 C 260.31 1096.70 251.66 1094.33 243.22 1091.78 C 234.79 1089.23 226.96 1085.99 219.08 1082.92 C 211.19 1079.86 203.27 1075.83 196.23 1071.77 C 189.19 1067.72 182.31 1063.57 176.25 1058.75 C 170.18 1053.94 163.59 1048.05 158.75 1042.25 C 153.92 1036.44 147.17 1029.82 144.98 1023.03 C 142.78 1016.23 134.98 1005.94 136.00 999.00
C 127.91 1007.17 119.31 1013.81 112.23 1022.23 C 105.15 1030.65 95.14 1036.04 88.30 1045.30 C 81.46 1054.57 74.93 1063.73 63.07 1067.07 C 51.22 1070.42 34.78 1069.88 26.25 1077.25 C 17.72 1084.62 12.48 1094.32 6.00 1103.00
C 15.16 1108.29 25.11 1113.78 33.00 1120.00
C 21.43 1123.39 11.43 1131.40 0.00 1135.00 Z"/>
</g>
<g fill="None" fill-opacity="0.0" stroke="#3A2B24" stroke-opacity="0.99" stroke-width="0.3"><path d="
M 602.00 1086.00 
C 604.32 1108.37 619.11 1127.84 609.00 1151.00
C 608.62 1164.12 620.53 1176.74 621.00 1190.00
C 622.66 1189.46 623.33 1187.44 625.00 1187.00
C 629.40 1181.85 633.69 1176.74 636.92 1170.92 C 640.15 1165.10 644.79 1159.29 646.92 1152.92 C 649.05 1146.56 653.91 1139.43 654.78 1132.78 C 655.64 1126.13 662.28 1116.61 661.00 1110.00
C 653.69 1102.97 646.60 1094.77 637.23 1090.77 C 627.86 1086.77 615.06 1078.54 604.00 1082.00
C 601.82 1084.66 601.62 1082.32 602.00 1086.00 Z"/>
</g>
<g fill="None" fill-opacity="0.0" stroke="#F8E2D9" stroke-opacity="1.00" stroke-width="0.3"><path d="
M 481.00 1181.00 
C 480.00 1184.52 482.42 1185.84 483.00 1188.00
C 490.70 1191.81 503.88 1184.06 511.22 1182.22 C 518.56 1180.39 527.40 1175.52 533.75 1170.75 C 540.09 1165.98 547.56 1161.59 552.75 1154.75 C 557.94 1147.91 568.89 1140.82 568.93 1153.07 C 568.96 1165.33 568.60 1172.16 563.00 1182.00
C 553.00 1199.56 533.41 1210.21 518.00 1221.00
C 527.96 1222.82 545.37 1224.51 555.00 1221.00
C 563.42 1217.93 568.74 1206.66 575.25 1200.25 C 581.75 1193.84 587.62 1184.79 593.25 1177.25 C 598.88 1169.71 605.31 1159.45 609.00 1151.00
C 619.11 1127.84 604.32 1108.37 602.00 1086.00
C 598.21 1082.77 589.34 1095.94 585.25 1099.25 C 581.15 1102.56 574.34 1110.16 569.75 1114.75 C 565.17 1119.34 558.72 1124.77 553.75 1129.75 C 548.79 1134.73 542.33 1139.25 536.75 1143.75 C 531.18 1148.26 525.36 1153.26 519.08 1157.08 C 512.81 1160.90 507.01 1166.24 500.23 1169.23 C 493.45 1172.22 486.55 1177.77 481.00 1181.00 Z"/>
</g>
<g fill="None" fill-opacity="0.0" stroke="#B49D8E" stroke-opacity="0.98" stroke-width="0.3"><path d="
M 625.00 1187.00 
C 620.51 1192.25 615.89 1195.29 610.77 1199.77 C 605.65 1204.25 600.29 1207.02 594.31 1210.31 C 588.32 1213.59 581.54 1215.76 574.98 1217.98 C 568.41 1220.19 559.30 1221.09 555.00 1221.00
C 545.37 1224.51 527.96 1222.82 518.00 1221.00
C 510.85 1219.69 495.84 1218.13 491.00 1213.00
C 498.84 1230.95 514.26 1236.05 522.26 1253.74 C 530.25 1271.43 530.52 1291.96 537.77 1311.23 C 545.02 1330.50 563.40 1339.65 585.00 1333.00
C 604.20 1327.09 622.58 1316.61 639.00 1305.00
C 656.22 1292.83 658.00 1273.30 658.00 1254.00
C 657.73 1251.25 657.00 1247.42 657.00 1244.00
C 657.00 1237.44 657.63 1230.52 657.00 1224.00
C 656.68 1220.73 655.16 1215.98 656.00 1212.00
C 658.20 1212.74 655.69 1216.33 658.00 1217.00
C 658.59 1187.59 660.58 1156.03 679.00 1133.00
L 679.00 1130.00
C 673.95 1122.34 667.32 1116.08 661.00 1110.00
C 662.28 1116.61 655.64 1126.13 654.78 1132.78 C 653.91 1139.43 649.05 1146.56 646.92 1152.92 C 644.79 1159.29 640.15 1165.10 636.92 1170.92 C 633.69 1176.74 629.40 1181.85 625.00 1187.00 Z"/>
</g>
<g fill="None" fill-opacity="0.0" stroke="#000000" stroke-opacity="0.00" stroke-width="0.3"><path d="
M 658.00 1217.00 
C 657.95 1219.42 657.16 1222.30 657.00 1224.00
C 657.63 1230.52 657.00 1237.44 657.00 1244.00
C 657.27 1246.75 658.00 1250.58 658.00 1254.00
C 658.00 1273.30 656.22 1292.83 639.00 1305.00
C 635.86 1315.50 644.85 1329.48 645.00 1340.00 C 645.14 1350.53 650.39 1361.04 651.93 1372.07 C 653.46 1383.11 656.63 1395.23 658.78 1406.22 C 660.93 1417.21 664.00 1429.10 665.99 1440.01 C 667.98 1450.92 651.24 1451.16 643.92 1456.92 C 636.61 1462.68 624.02 1465.56 617.00 1472.00
L 679.00 1472.00
L 679.00 1133.00
C 660.58 1156.03 658.59 1187.59 658.00 1217.00 Z"/>
</g>
<g fill="None" fill-opacity="0.0" stroke="#000000" stroke-opacity="0.00" stroke-width="0.3"><path d="
M 0.00 1472.00 
L 613.00 1472.00
C 611.36 1463.14 608.43 1454.66 606.02 1445.98 C 603.62 1437.29 600.57 1428.13 598.68 1419.32 C 596.78 1410.52 592.93 1401.12 591.68 1392.32 C 590.43 1383.52 586.33 1372.40 586.02 1363.98 C 585.71 1355.56 579.77 1340.25 585.00 1333.00
C 563.40 1339.65 545.02 1330.50 537.77 1311.23 C 530.52 1291.96 530.25 1271.43 522.26 1253.74 C 514.26 1236.05 498.84 1230.95 491.00 1213.00
C 489.34 1209.21 487.51 1205.09 486.00 1201.00
C 484.51 1196.97 484.00 1191.71 483.00 1188.00
C 482.42 1185.84 480.00 1184.52 481.00 1181.00
C 470.80 1181.28 466.02 1191.38 459.75 1197.75 C 453.47 1204.11 448.15 1209.59 441.75 1216.75 C 435.35 1223.91 429.92 1229.64 422.92 1235.92 C 415.92 1242.19 403.06 1233.65 394.00 1234.00
C 398.46 1223.27 409.03 1215.45 414.00 1205.00
C 389.95 1216.75 366.88 1231.70 341.00 1239.00
C 344.38 1234.16 346.92 1228.41 351.00 1224.00
C 352.20 1221.88 351.15 1220.56 351.00 1221.00
C 337.95 1234.57 318.99 1235.88 301.22 1239.22 C 283.45 1242.56 262.16 1226.96 247.23 1237.23 C 232.30 1247.50 227.33 1262.73 218.75 1276.75 C 210.18 1290.78 203.13 1306.93 193.70 1319.70 C 184.28 1332.47 170.45 1346.18 154.00 1347.00
C 156.41 1351.08 148.81 1360.30 148.22 1365.22 C 147.63 1370.15 143.55 1377.74 142.22 1383.22 C 140.90 1388.70 137.61 1395.42 136.22 1401.22 C 134.83 1407.02 132.02 1413.52 130.22 1419.22 C 128.42 1424.92 125.83 1430.66 123.08 1436.08 C 120.32 1441.49 117.45 1445.48 112.75 1449.75 C 108.05 1454.02 103.19 1456.18 96.98 1457.98 C 90.76 1459.77 82.67 1460.17 76.00 1459.00 C 69.33 1457.83 64.36 1454.79 57.93 1453.07 C 51.50 1451.36 46.28 1447.30 49.93 1440.93 C 53.58 1434.56 54.38 1430.20 57.25 1424.25 C 60.13 1418.31 61.18 1412.68 63.97 1406.97 C 66.76 1401.26 68.25 1395.59 70.93 1389.93 C 73.61 1384.26 75.72 1378.78 77.93 1372.93 C 80.13 1367.08 82.53 1361.79 84.92 1355.92 C 87.32 1350.06 89.82 1344.01 92.00 1338.00
C 84.70 1336.30 81.33 1334.75 74.08 1331.92 C 66.82 1329.10 71.15 1323.59 74.08 1318.08 C 77.01 1312.56 78.35 1307.34 80.23 1301.23 C 82.11 1295.12 83.78 1288.64 85.00 1282.00 C 86.22 1275.36 84.23 1266.33 82.93 1260.07 C 81.62 1253.82 78.64 1249.18 76.98 1243.02 C 75.31 1236.87 73.44 1229.49 72.93 1223.07 C 72.41 1216.66 68.27 1208.55 70.00 1202.00 C 71.73 1195.45 64.99 1185.72 69.00 1180.00
C 56.20 1179.81 44.02 1177.27 31.00 1178.00
C 35.49 1170.13 45.71 1164.08 53.00 1157.00
C 55.08 1154.98 56.97 1152.99 59.00 1151.00
C 61.03 1148.63 65.88 1145.94 63.00 1142.00
C 42.24 1143.60 21.06 1138.46 0.00 1138.00
L 0.00 1472.00 Z"/>
</g>
<g fill="None" fill-opacity="0.0" stroke="#6F5040" stroke-opacity="1.00" stroke-width="0.3"><path d="
M 483.00 1188.00 
C 484.00 1191.71 484.51 1196.97 486.00 1201.00
C 493.25 1204.87 500.57 1199.47 509.01 1200.01 C 517.45 1200.55 520.16 1199.68 530.22 1197.22 C 540.28 1194.76 555.94 1191.12 563.00 1182.00
C 568.60 1172.16 568.96 1165.33 568.93 1153.07 C 568.89 1140.82 557.94 1147.91 552.75 1154.75 C 547.56 1161.59 540.09 1165.98 533.75 1170.75 C 527.40 1175.52 518.56 1180.39 511.22 1182.22 C 503.88 1184.06 490.70 1191.81 483.00 1188.00 Z"/>
</g>
<g fill="None" fill-opacity="0.0" stroke="#F7EADA" stroke-opacity="0.54" stroke-width="0.3"><path d="
M 53.00 1157.00 
C 52.35 1157.33 55.08 1157.39 57.25 1155.25 C 59.41 1153.10 59.35 1150.34 59.00 1151.00
C 56.97 1152.99 55.08 1154.98 53.00 1157.00 Z"/>
</g>
<g fill="None" fill-opacity="0.0" stroke="#644D42" stroke-opacity="1.00" stroke-width="0.3"><path d="
M 555.00 1221.00 
C 559.30 1221.09 568.41 1220.19 574.98 1217.98 C 581.54 1215.76 588.32 1213.59 594.31 1210.31 C 600.29 1207.02 605.65 1204.25 610.77 1199.77 C 615.89 1195.29 620.51 1192.25 625.00 1187.00
C 623.33 1187.44 622.66 1189.46 621.00 1190.00
C 620.53 1176.74 608.62 1164.12 609.00 1151.00
C 605.31 1159.45 598.88 1169.71 593.25 1177.25 C 587.62 1184.79 581.75 1193.84 575.25 1200.25 C 568.74 1206.66 563.42 1217.93 555.00 1221.00 Z"/>
</g>
<g fill="None" fill-opacity="0.0" stroke="#DCBEB4" stroke-opacity="0.99" stroke-width="0.3"><path d="
M 486.00 1201.00 
C 487.51 1205.09 489.34 1209.21 491.00 1213.00
C 495.84 1218.13 510.85 1219.69 518.00 1221.00
C 533.41 1210.21 553.00 1199.56 563.00 1182.00
C 555.94 1191.12 540.28 1194.76 530.22 1197.22 C 520.16 1199.68 517.45 1200.55 509.01 1200.01 C 500.57 1199.47 493.25 1204.87 486.00 1201.00 Z"/>
</g>
<g fill="None" fill-opacity="0.0" stroke="#BEA390" stroke-opacity="0.49" stroke-width="0.3"><path d="
M 419.00 1201.00 
C 416.62 1201.06 412.39 1203.29 415.00 1206.00
C 416.09 1204.17 419.16 1203.69 419.00 1201.00 Z"/>
</g>
<g fill="None" fill-opacity="0.0" stroke="#A2948B" stroke-opacity="0.40" stroke-width="0.3"><path d="
M 657.00 1224.00 
C 657.16 1222.30 657.95 1219.42 658.00 1217.00
C 655.69 1216.33 658.20 1212.74 656.00 1212.00
C 655.16 1215.98 656.68 1220.73 657.00 1224.00 Z"/>
</g>
<g fill="None" fill-opacity="0.0" stroke="#BAA088" stroke-opacity="0.40" stroke-width="0.3"><path d="
M 351.00 1221.00 
C 351.15 1220.56 352.20 1221.88 351.00 1224.00
C 354.18 1221.95 357.05 1218.55 358.00 1215.00
C 355.00 1216.26 353.19 1218.73 351.00 1221.00 Z"/>
</g>
<g fill="None" fill-opacity="0.0" stroke="#81817E" stroke-opacity="0.02" stroke-width="0.3"><path d="
M 658.00 1254.00 
C 658.00 1250.58 657.27 1246.75 657.00 1244.00
C 657.00 1247.42 657.73 1251.25 658.00 1254.00 Z"/>
</g>
<g fill="None" fill-opacity="0.0" stroke="#372016" stroke-opacity="0.97" stroke-width="0.3"><path d="
M 585.00 1333.00 
C 579.77 1340.25 585.71 1355.56 586.02 1363.98 C 586.33 1372.40 590.43 1383.52 591.68 1392.32 C 592.93 1401.12 596.78 1410.52 598.68 1419.32 C 600.57 1428.13 603.62 1437.29 606.02 1445.98 C 608.43 1454.66 611.36 1463.14 613.00 1472.00
L 617.00 1472.00
C 624.02 1465.56 636.61 1462.68 643.92 1456.92 C 651.24 1451.16 667.98 1450.92 665.99 1440.01 C 664.00 1429.10 660.93 1417.21 658.78 1406.22 C 656.63 1395.23 653.46 1383.11 651.93 1372.07 C 650.39 1361.04 645.14 1350.53 645.00 1340.00 C 644.85 1329.48 635.86 1315.50 639.00 1305.00
C 622.58 1316.61 604.20 1327.09 585.00 1333.00 Z"/>
</g>
<g fill="None" fill-opacity="0.0" stroke="#3A2219" stroke-opacity="0.97" stroke-width="0.3"><path d="
M 154.00 1347.00 
C 132.30 1348.09 112.89 1342.86 92.00 1338.00
C 89.82 1344.01 87.32 1350.06 84.92 1355.92 C 82.53 1361.79 80.13 1367.08 77.93 1372.93 C 75.72 1378.78 73.61 1384.26 70.93 1389.93 C 68.25 1395.59 66.76 1401.26 63.97 1406.97 C 61.18 1412.68 60.13 1418.31 57.25 1424.25 C 54.38 1430.20 53.58 1434.56 49.93 1440.93 C 46.28 1447.30 51.50 1451.36 57.93 1453.07 C 64.36 1454.79 69.33 1457.83 76.00 1459.00 C 82.67 1460.17 90.76 1459.77 96.98 1457.98 C 103.19 1456.18 108.05 1454.02 112.75 1449.75 C 117.45 1445.48 120.32 1441.49 123.08 1436.08 C 125.83 1430.66 128.42 1424.92 130.22 1419.22 C 132.02 1413.52 134.83 1407.02 136.22 1401.22 C 137.61 1395.42 140.90 1388.70 142.22 1383.22 C 143.55 1377.74 147.63 1370.15 148.22 1365.22 C 148.81 1360.30 156.41 1351.08 154.00 1347.00 Z"/>
</g>
<g fill="#000000" fill-opacity="0.00" stroke="None">
<path d="
M 0.00 1135.00 
C 11.43 1131.40 21.43 1123.39 33.00 1120.00
C 25.11 1113.78 15.16 1108.29 6.00 1103.00
C 12.48 1094.32 17.72 1084.62 26.25 1077.25 C 34.78 1069.88 51.22 1070.42 63.07 1067.07 C 74.93 1063.73 81.46 1054.57 88.30 1045.30 C 95.14 1036.04 105.15 1030.65 112.23 1022.23 C 119.31 1013.81 127.91 1007.17 136.00 999.00
C 145.25 989.75 157.94 976.85 164.00 965.00
C 167.32 958.50 170.00 950.95 173.31 944.31 C 176.61 937.66 179.76 929.32 182.92 922.92 C 186.09 916.53 187.77 907.27 191.77 901.77 C 195.77 896.27 194.42 882.55 201.00 880.00
C 206.74 877.77 219.17 880.84 225.00 881.00 C 230.83 881.16 242.09 882.80 247.00 884.00 C 251.91 885.20 263.13 886.49 265.00 891.00
C 266.92 876.23 271.97 861.88 272.93 846.93 C 273.89 831.98 279.62 813.00 275.00 798.00
C 273.22 792.20 266.11 783.92 261.00 780.00
C 246.35 768.77 221.46 763.10 212.00 747.00
C 209.17 742.19 203.83 731.51 207.00 725.00
C 196.20 731.67 180.19 736.60 168.00 740.00
C 155.75 743.42 145.63 738.45 133.78 738.22 C 121.93 738.00 117.78 729.90 109.75 723.25 C 101.72 716.59 99.03 710.46 89.75 704.25 C 80.47 698.03 79.45 686.03 81.00 675.00 C 82.55 663.97 82.02 650.64 85.93 640.93 C 89.83 631.21 95.59 624.55 103.23 619.23 C 110.88 613.91 117.87 606.40 127.00 604.00
C 130.36 597.49 127.35 585.71 130.98 578.98 C 134.61 572.25 133.07 562.34 136.99 555.99 C 140.92 549.64 140.87 541.33 146.00 536.00
C 135.59 540.04 130.21 539.91 119.77 545.77 C 109.34 551.63 99.68 540.61 109.75 533.75 C 119.83 526.90 121.68 525.40 133.00 521.00
C 131.91 521.15 107.54 523.27 112.93 513.93 C 118.32 504.58 129.64 506.75 138.02 503.02 C 146.40 499.30 162.04 499.95 171.00 502.00
C 182.88 488.39 198.21 480.13 215.67 486.33 C 233.13 492.53 254.85 495.62 274.00 496.00
C 282.66 496.17 291.34 496.00 300.00 496.00
C 307.05 496.00 313.81 494.11 321.00 495.00
C 310.00 490.68 298.02 481.20 293.00 470.00
C 281.53 461.21 266.90 454.71 262.03 438.97 C 257.15 423.24 252.07 404.87 251.00 388.00
C 247.86 384.43 240.26 384.73 235.77 381.23 C 231.28 377.73 226.97 375.94 221.30 372.70 C 215.64 369.45 215.13 362.22 215.00 356.00 C 214.87 349.78 217.02 341.65 224.07 342.07 C 231.13 342.49 235.94 335.68 242.00 337.00
C 240.30 333.16 239.47 328.08 238.00 324.00
C 224.52 286.56 229.20 241.37 238.00 203.00 C 246.80 164.63 244.06 120.56 255.00 83.00
C 255.10 79.25 255.55 72.48 257.00 69.00
C 260.94 59.55 275.63 56.04 281.75 47.75 C 287.87 39.47 300.44 35.52 306.75 26.75 C 313.05 17.97 318.16 7.33 327.00 0.00
L 0.00 0.00
L 0.00 1135.00 Z"/>
</g>
<g fill="#856A58" fill-opacity="0.98" stroke="None">
<path d="
M 257.00 69.00 
C 260.49 65.26 270.38 67.91 276.00 67.00 C 281.62 66.09 290.64 66.55 297.00 66.00 C 303.36 65.45 311.21 66.26 318.00 66.00 C 324.79 65.74 333.08 66.18 340.00 66.00 C 346.92 65.82 354.28 66.62 361.00 67.00 C 367.72 67.38 374.32 68.03 381.00 68.00 C 387.68 67.97 393.76 70.69 400.22 70.78 C 406.68 70.86 413.67 72.81 419.00 72.00
C 415.08 61.25 409.27 54.35 407.67 42.33 C 406.07 30.31 403.44 16.05 405.00 3.00
C 395.05 3.77 385.85 1.66 376.00 2.00
C 374.70 2.13 374.05 2.05 372.00 3.00 C 369.94 3.94 368.28 1.06 368.00 1.00
C 364.03 0.78 359.98 1.00 356.00 1.00
C 350.50 1.00 343.67 1.83 339.00 0.00
L 327.00 0.00
C 318.16 7.33 313.05 17.97 306.75 26.75 C 300.44 35.52 287.87 39.47 281.75 47.75 C 275.63 56.04 260.94 59.55 257.00 69.00 Z"/>
</g>
<g fill="#816451" fill-opacity="0.08" stroke="None">
<path d="
M 356.00 1.00 
C 355.96 1.00 356.00 0.00 356.00 0.00
L 339.00 0.00
C 343.67 1.83 350.50 1.00 356.00 1.00 Z"/>
</g>
<g fill="#000000" fill-opacity="0.00" stroke="None">
<path d="
M 356.00 1.00 
C 359.98 1.00 364.03 0.78 368.00 1.00
C 370.91 1.16 373.18 1.78 376.00 2.00
C 385.85 1.66 395.05 3.77 405.00 3.00
C 403.44 16.05 406.07 30.31 407.67 42.33 C 409.27 54.35 415.08 61.25 419.00 72.00
C 419.77 74.12 420.10 76.28 420.00 79.00
C 425.79 109.57 433.85 140.89 440.32 171.68 C 446.80 202.47 455.51 232.21 462.00 263.00
C 466.32 283.50 461.03 304.96 456.00 324.00
C 462.42 329.27 471.08 334.66 472.00 344.00
C 480.12 346.26 489.78 354.21 492.97 362.03 C 496.17 369.84 493.17 371.32 490.75 376.75 C 488.32 382.17 482.98 382.01 478.97 384.97 C 474.96 387.94 468.50 386.97 464.78 389.78 C 461.05 392.58 450.56 389.46 448.00 393.00
C 448.00 408.10 433.99 426.07 428.68 439.68 C 423.37 453.29 408.21 468.08 396.00 474.00
C 396.42 478.63 395.69 483.36 396.00 488.00
C 396.60 488.29 398.32 488.00 399.00 488.00
C 414.25 488.00 432.16 486.63 447.00 490.00 C 461.85 493.37 473.24 488.79 487.22 485.22 C 501.20 481.66 519.28 483.11 531.22 489.78 C 543.17 496.44 544.56 508.09 557.23 513.77 C 569.90 519.45 564.94 539.09 572.78 549.22 C 580.61 559.36 587.70 569.26 591.00 582.00
C 595.84 600.67 594.46 622.63 598.78 641.22 C 603.10 659.82 592.63 675.69 582.25 689.25 C 571.87 702.81 567.64 719.77 552.00 727.00
C 546.55 729.52 537.41 732.81 531.00 731.00 C 524.59 729.19 514.54 731.16 509.00 730.00
C 511.30 736.54 506.93 745.56 502.25 750.25 C 497.56 754.93 487.44 754.53 482.00 758.00
C 477.98 760.57 474.73 762.69 471.00 765.00
C 464.70 768.90 457.95 774.92 452.00 780.00
C 443.41 787.34 437.66 800.71 434.07 811.07 C 430.49 821.44 432.65 823.59 431.00 832.00 C 429.35 840.41 430.78 847.03 431.98 854.02 C 433.17 861.02 432.54 869.61 435.33 874.67 C 438.12 879.73 437.22 890.70 442.00 893.00
C 462.27 886.59 484.62 886.18 505.00 880.00
C 506.93 887.94 512.03 895.48 514.77 903.23 C 517.51 910.98 521.96 924.38 510.00 926.00
C 507.51 929.38 512.60 943.42 513.00 948.00
C 515.10 943.19 529.41 938.76 534.00 939.00
C 541.26 939.38 549.39 948.70 555.00 953.00
C 586.45 977.10 619.06 998.38 651.00 1022.00
C 638.54 1044.39 619.26 1062.81 604.00 1082.00
C 615.06 1078.54 627.86 1086.77 637.23 1090.77 C 646.60 1094.77 653.69 1102.97 661.00 1110.00
C 667.32 1116.08 673.95 1122.34 679.00 1130.00
L 679.00 0.00
L 356.00 0.00
C 356.00 0.00 355.96 1.00 356.00 1.00 Z"/>
</g>
<g fill="#806557" fill-opacity="0.55" stroke="None">
<path d="
M 376.00 2.00 
C 373.18 1.78 370.91 1.16 368.00 1.00
C 368.28 1.06 369.94 3.94 372.00 3.00 C 374.05 2.05 374.70 2.13 376.00 2.00 Z"/>
</g>
<g fill="#9D7F6A" fill-opacity="1.00" stroke="None">
<path d="
M 257.00 69.00 
C 255.55 72.48 255.10 79.25 255.00 83.00
C 254.15 113.80 248.79 150.37 251.00 183.00 C 253.21 215.63 258.23 243.94 265.00 275.00
C 267.66 287.22 273.38 299.70 275.00 312.00
C 279.09 317.13 288.86 312.32 295.00 314.00 C 301.14 315.68 309.36 314.78 316.00 315.00
C 317.01 324.15 303.96 319.33 297.00 320.00 C 290.04 320.67 278.93 321.28 274.00 317.00
C 266.99 326.40 266.00 331.46 266.00 344.00
C 266.00 356.61 267.51 369.12 268.00 382.00
C 268.35 391.06 273.20 408.90 283.00 412.00
C 290.53 414.38 299.11 413.74 307.01 414.99 C 314.90 416.25 324.25 415.67 332.07 416.93 C 339.90 418.18 351.50 416.36 359.00 417.00 C 366.50 417.64 376.62 413.61 383.02 414.02 C 389.43 414.44 400.66 407.37 403.00 411.00
C 403.73 400.51 410.22 389.50 411.00 378.00
C 411.70 367.65 411.71 355.94 410.00 346.00
C 408.17 335.39 405.55 325.15 402.00 315.00
C 385.92 317.61 369.84 320.34 353.00 320.00
C 353.69 311.08 367.54 315.13 375.22 313.22 C 382.90 311.31 393.17 311.93 401.00 310.00
C 401.36 297.25 412.44 264.09 431.00 275.00
C 426.15 266.12 431.55 253.07 429.00 243.00 C 426.45 232.93 429.76 219.54 428.00 209.00 C 426.24 198.46 427.22 186.75 426.00 176.00 C 424.78 165.25 425.30 153.73 424.00 143.00 C 422.70 132.27 423.03 120.73 422.00 110.00 C 420.97 99.27 419.63 88.97 420.00 79.00
C 420.10 76.28 419.77 74.12 419.00 72.00
C 413.67 72.81 406.68 70.86 400.22 70.78 C 393.76 70.69 387.68 67.97 381.00 68.00 C 374.32 68.03 367.72 67.38 361.00 67.00 C 354.28 66.62 346.92 65.82 340.00 66.00 C 333.08 66.18 324.79 65.74 318.00 66.00 C 311.21 66.26 303.36 65.45 297.00 66.00 C 290.64 66.55 281.62 66.09 276.00 67.00 C 270.38 67.91 260.49 65.26 257.00 69.00 Z"/>
</g>
<g fill="#BEA492" fill-opacity="0.97" stroke="None">
<path d="
M 431.00 275.00 
C 456.55 290.01 441.73 349.56 410.00 346.00
C 411.71 355.94 411.70 367.65 411.00 378.00
C 412.87 371.91 417.91 366.57 420.31 360.31 C 422.70 354.04 427.17 348.45 430.77 342.77 C 434.37 337.09 438.79 332.34 442.92 326.92 C 447.05 321.50 452.42 317.91 453.92 310.92 C 455.42 303.93 460.33 296.51 459.78 288.78 C 459.23 281.05 461.59 268.62 462.00 263.00
C 455.51 232.21 446.80 202.47 440.32 171.68 C 433.85 140.89 425.79 109.57 420.00 79.00
C 419.63 88.97 420.97 99.27 422.00 110.00 C 423.03 120.73 422.70 132.27 424.00 143.00 C 425.30 153.73 424.78 165.25 426.00 176.00 C 427.22 186.75 426.24 198.46 428.00 209.00 C 429.76 219.54 426.45 232.93 429.00 243.00 C 431.55 253.07 426.15 266.12 431.00 275.00 Z"/>
</g>
<g fill="#6B5340" fill-opacity="0.96" stroke="None">
<path d="
M 238.00 324.00 
C 250.95 341.42 260.87 361.42 268.00 382.00
C 267.51 369.12 266.00 356.61 266.00 344.00
C 257.88 343.97 251.73 338.40 247.25 331.75 C 242.76 325.10 240.65 315.84 239.02 307.98 C 237.40 300.11 240.84 288.40 244.31 282.31 C 247.77 276.21 259.80 268.80 265.00 275.00
C 258.23 243.94 253.21 215.63 251.00 183.00 C 248.79 150.37 254.15 113.80 255.00 83.00
C 244.06 120.56 246.80 164.63 238.00 203.00 C 229.20 241.37 224.52 286.56 238.00 324.00 Z"/>
</g>
<g fill="#D1B3B6" fill-opacity="0.96" stroke="None">
<path d="
M 411.00 378.00 
C 410.22 389.50 403.73 400.51 403.00 411.00
C 402.21 422.32 405.43 437.27 401.02 448.02 C 396.62 458.78 395.37 468.02 388.00 477.00
C 389.48 476.04 392.20 474.65 394.00 474.00
C 394.44 473.84 395.00 474.00 395.00 474.00
C 395.50 474.00 396.00 474.00 396.00 474.00
C 408.21 468.08 423.37 453.29 428.68 439.68 C 433.99 426.07 448.00 408.10 448.00 393.00
C 448.00 380.33 453.78 375.19 455.00 363.00 C 456.21 350.81 454.89 339.23 472.00 344.00
C 471.08 334.66 462.42 329.27 456.00 324.00
C 461.03 304.96 466.32 283.50 462.00 263.00
C 461.59 268.62 459.23 281.05 459.78 288.78 C 460.33 296.51 455.42 303.93 453.92 310.92 C 452.42 317.91 447.05 321.50 442.92 326.92 C 438.79 332.34 434.37 337.09 430.77 342.77 C 427.17 348.45 422.70 354.04 420.31 360.31 C 417.91 366.57 412.87 371.91 411.00 378.00 Z"/>
</g>
<g fill="#1A120F" fill-opacity="1.00" stroke="None">
<path d="
M 266.00 344.00 
C 266.00 331.46 266.99 326.40 274.00 317.00
C 275.56 314.91 275.42 315.20 275.00 312.00
C 273.38 299.70 267.66 287.22 265.00 275.00
C 259.80 268.80 247.77 276.21 244.31 282.31 C 240.84 288.40 237.40 300.11 239.02 307.98 C 240.65 315.84 242.76 325.10 247.25 331.75 C 251.73 338.40 257.88 343.97 266.00 344.00
M 254.00 283.00 
C 262.43 285.11 259.56 305.73 250.33 302.67 C 241.09 299.61 244.28 280.57 254.00 283.00 Z"/>
</g>
<g fill="#251510" fill-opacity="1.00" stroke="None">
<path d="
M 401.00 310.00 
C 400.92 312.76 401.03 312.23 402.00 315.00
C 405.55 325.15 408.17 335.39 410.00 346.00
C 441.73 349.56 456.55 290.01 431.00 275.00
C 412.44 264.09 401.36 297.25 401.00 310.00
M 426.00 283.00 
C 434.10 285.76 430.16 305.94 421.33 302.67 C 412.49 299.40 416.61 279.80 426.00 283.00 Z"/>
</g>
<g fill="#F0EFEF" fill-opacity="1.00" stroke="None">
<path d="
M 254.00 283.00 
C 244.28 280.57 241.09 299.61 250.33 302.67 C 259.56 305.73 262.43 285.11 254.00 283.00 Z"/>
</g>
<g fill="#F6F4F3" fill-opacity="1.00" stroke="None">
<path d="
M 426.00 283.00 
C 416.61 279.80 412.49 299.40 421.33 302.67 C 430.16 305.94 434.10 285.76 426.00 283.00 Z"/>
</g>
<g fill="#442816" fill-opacity="1.00" stroke="None">
<path d="
M 402.00 315.00 
C 401.03 312.23 400.92 312.76 401.00 310.00
C 393.17 311.93 382.90 311.31 375.22 313.22 C 367.54 315.13 353.69 311.08 353.00 320.00
C 369.84 320.34 385.92 317.61 402.00 315.00 Z"/>
</g>
<g fill="#472B18" fill-opacity="1.00" stroke="None">
<path d="
M 274.00 317.00 
C 278.93 321.28 290.04 320.67 297.00 320.00 C 303.96 319.33 317.01 324.15 316.00 315.00
C 309.36 314.78 301.14 315.68 295.00 314.00 C 288.86 312.32 279.09 317.13 275.00 312.00
C 275.42 315.20 275.56 314.91 274.00 317.00 Z"/>
</g>
<g fill="#656073" fill-opacity="0.96" stroke="None">
<path d="
M 242.00 337.00 
C 248.80 352.39 249.95 371.39 251.00 388.00
C 252.07 404.87 257.15 423.24 262.03 438.97 C 266.90 454.71 281.53 461.21 293.00 470.00
C 291.18 465.94 288.91 459.26 287.02 453.98 C 285.14 448.69 282.81 439.10 282.22 433.78 C 281.63 428.46 278.14 414.14 283.00 412.00
C 273.20 408.90 268.35 391.06 268.00 382.00
C 260.87 361.42 250.95 341.42 238.00 324.00
C 239.47 328.08 240.30 333.16 242.00 337.00 Z"/>
</g>
<g fill="#1F100F" fill-opacity="0.96" stroke="None">
<path d="
M 251.00 388.00 
C 249.95 371.39 248.80 352.39 242.00 337.00
C 235.94 335.68 231.13 342.49 224.07 342.07 C 217.02 341.65 214.87 349.78 215.00 356.00 C 215.13 362.22 215.64 369.45 221.30 372.70 C 226.97 375.94 231.28 377.73 235.77 381.23 C 240.26 384.73 247.86 384.43 251.00 388.00 Z"/>
</g>
<g fill="#361E14" fill-opacity="0.97" stroke="None">
<path d="
M 448.00 393.00 
C 450.56 389.46 461.05 392.58 464.78 389.78 C 468.50 386.97 474.96 387.94 478.97 384.97 C 482.98 382.01 488.32 382.17 490.75 376.75 C 493.17 371.32 496.17 369.84 492.97 362.03 C 489.78 354.21 480.12 346.26 472.00 344.00
C 454.89 339.23 456.21 350.81 455.00 363.00 C 453.78 375.19 448.00 380.33 448.00 393.00 Z"/>
</g>
<g fill="#493324" fill-opacity="1.00" stroke="None">
<path d="
M 283.00 412.00 
C 278.14 414.14 281.63 428.46 282.22 433.78 C 282.81 439.10 285.14 448.69 287.02 453.98 C 288.91 459.26 291.18 465.94 293.00 470.00
C 298.02 481.20 310.00 490.68 321.00 495.00
C 325.32 496.70 331.77 497.59 336.00 498.00
C 346.48 499.01 357.81 496.17 367.07 493.07 C 376.33 489.98 380.20 482.08 388.00 477.00
C 395.37 468.02 396.62 458.78 401.02 448.02 C 405.43 437.27 402.21 422.32 403.00 411.00
C 400.66 407.37 389.43 414.44 383.02 414.02 C 376.62 413.61 366.50 417.64 359.00 417.00 C 351.50 416.36 339.90 418.18 332.07 416.93 C 324.25 415.67 314.90 416.25 307.01 414.99 C 299.11 413.74 290.53 414.38 283.00 412.00 Z"/>
</g>
<g fill="#BAA6A0" fill-opacity="1.00" stroke="None">
<path d="
M 388.00 477.00 
C 380.20 482.08 376.33 489.98 367.07 493.07 C 357.81 496.17 346.48 499.01 336.00 498.00
C 335.10 498.29 333.92 497.77 333.00 498.00
C 332.89 513.43 352.15 515.44 360.00 526.00
C 371.05 513.25 379.20 496.89 394.00 488.00
C 395.57 484.57 393.66 477.81 394.00 474.00
C 392.20 474.65 389.48 476.04 388.00 477.00 Z"/>
</g>
<g fill="#B5A19A" fill-opacity="0.71" stroke="None">
<path d="
M 394.00 488.00 
C 394.78 487.88 398.37 488.04 399.00 488.00
C 398.32 488.00 396.60 488.29 396.00 488.00
C 393.47 486.75 395.24 476.67 395.00 474.00
C 395.00 474.00 394.44 473.84 394.00 474.00
C 393.66 477.81 395.57 484.57 394.00 488.00 Z"/>
</g>
<g fill="#AE9F9C" fill-opacity="0.06" stroke="None">
<path d="
M 396.00 488.00 
C 395.69 483.36 396.42 478.63 396.00 474.00
C 396.00 474.00 395.50 474.00 395.00 474.00
C 395.24 476.67 393.47 486.75 396.00 488.00 Z"/>
</g>
<g fill="#A59180" fill-opacity="0.98" stroke="None">
<path d="
M 171.00 502.00 
C 173.67 502.61 176.29 503.40 179.00 504.00
C 192.40 506.97 209.52 494.57 222.23 500.77 C 234.94 506.97 246.34 511.59 257.23 519.77 C 268.12 527.95 276.74 535.02 286.25 544.75 C 295.75 554.49 302.91 564.84 310.00 576.00
C 310.17 576.27 310.83 576.67 311.00 577.00
C 322.80 578.25 333.85 569.08 346.01 572.01 C 358.16 574.93 367.84 564.66 378.00 565.00
C 377.52 564.82 376.24 563.63 376.00 563.00
C 388.53 557.75 398.28 550.15 410.08 543.08 C 421.89 536.01 430.37 524.27 442.75 534.25 C 455.12 544.24 474.27 540.38 489.00 543.00
C 494.97 543.00 501.04 542.68 507.00 543.00
C 516.20 543.50 522.86 548.88 531.68 551.32 C 540.49 553.77 546.62 558.99 556.03 560.98 C 565.43 562.96 567.56 573.24 569.00 582.00
C 576.33 581.85 583.67 582.11 591.00 582.00
C 587.70 569.26 580.61 559.36 572.78 549.22 C 564.94 539.09 569.90 519.45 557.23 513.77 C 544.56 508.09 543.17 496.44 531.22 489.78 C 519.28 483.11 501.20 481.66 487.22 485.22 C 473.24 488.79 461.85 493.37 447.00 490.00 C 432.16 486.63 414.25 488.00 399.00 488.00
C 398.37 488.04 394.78 487.88 394.00 488.00
C 379.20 496.89 371.05 513.25 360.00 526.00
C 352.15 515.44 332.89 513.43 333.00 498.00
C 333.92 497.77 335.10 498.29 336.00 498.00
C 331.77 497.59 325.32 496.70 321.00 495.00
C 313.81 494.11 307.05 496.00 300.00 496.00
C 292.28 497.63 281.76 497.86 274.00 496.00
C 254.85 495.62 233.13 492.53 215.67 486.33 C 198.21 480.13 182.88 488.39 171.00 502.00 Z"/>
</g>
<g fill="#A29080" fill-opacity="0.56" stroke="None">
<path d="
M 300.00 496.00 
C 291.34 496.00 282.66 496.17 274.00 496.00
C 281.76 497.86 292.28 497.63 300.00 496.00 Z"/>
</g>
<g fill="#432E25" fill-opacity="0.99" stroke="None">
<path d="
M 179.00 504.00 
C 182.33 507.63 167.79 509.42 164.32 510.32 C 160.85 511.23 151.18 514.55 146.93 515.93 C 142.67 517.30 135.83 519.90 133.00 521.00
C 121.68 525.40 119.83 526.90 109.75 533.75 C 99.68 540.61 109.34 551.63 119.77 545.77 C 130.21 539.91 135.59 540.04 146.00 536.00
C 159.82 530.64 174.39 527.27 189.00 524.00
C 190.33 536.47 196.47 552.64 211.00 554.00
C 207.92 563.72 200.46 579.01 211.00 587.00
C 220.96 591.60 235.30 585.38 246.00 587.00 C 256.70 588.62 269.24 584.89 279.02 583.02 C 288.80 581.16 303.35 581.97 310.00 576.00
C 302.91 564.84 295.75 554.49 286.25 544.75 C 276.74 535.02 268.12 527.95 257.23 519.77 C 246.34 511.59 234.94 506.97 222.23 500.77 C 209.52 494.57 192.40 506.97 179.00 504.00 Z"/>
</g>
<g fill="#271715" fill-opacity="0.93" stroke="None">
<path d="
M 133.00 521.00 
C 135.83 519.90 142.67 517.30 146.93 515.93 C 151.18 514.55 160.85 511.23 164.32 510.32 C 167.79 509.42 182.33 507.63 179.00 504.00
C 176.29 503.40 173.67 502.61 171.00 502.00
C 162.04 499.95 146.40 499.30 138.02 503.02 C 129.64 506.75 118.32 504.58 112.93 513.93 C 107.54 523.27 131.91 521.15 133.00 521.00 Z"/>
</g>
<g fill="#9D7E69" fill-opacity="0.99" stroke="None">
<path d="
M 146.00 536.00 
C 140.87 541.33 140.92 549.64 136.99 555.99 C 133.07 562.34 134.61 572.25 130.98 578.98 C 127.35 585.71 130.36 597.49 127.00 604.00
C 130.48 603.08 139.15 601.10 144.00 602.00
C 148.52 600.92 147.04 599.18 154.02 598.02 C 161.01 596.87 170.67 593.77 178.00 594.00 C 185.33 594.23 184.09 591.08 189.67 591.67 C 195.25 592.26 197.13 588.20 202.00 590.00 C 206.87 591.80 210.54 587.09 211.00 587.00
C 200.46 579.01 207.92 563.72 211.00 554.00
C 196.47 552.64 190.33 536.47 189.00 524.00
C 174.39 527.27 159.82 530.64 146.00 536.00 Z"/>
</g>
<g fill="#442E25" fill-opacity="1.00" stroke="None">
<path d="
M 378.00 565.00 
C 393.55 565.53 412.95 569.90 427.07 573.93 C 441.20 577.95 457.38 583.35 468.70 591.31 C 480.01 599.26 494.48 611.52 493.00 626.00
C 493.78 625.22 499.83 621.86 502.00 620.00
C 522.18 602.75 541.09 582.56 569.00 582.00
C 567.56 573.24 565.43 562.96 556.03 560.98 C 546.62 558.99 540.49 553.77 531.68 551.32 C 522.86 548.88 516.20 543.50 507.00 543.00
C 501.50 543.24 494.50 543.53 489.00 543.00
C 474.27 540.38 455.12 544.24 442.75 534.25 C 430.37 524.27 421.89 536.01 410.08 543.08 C 398.28 550.15 388.53 557.75 376.00 563.00
C 376.24 563.63 377.52 564.82 378.00 565.00 Z"/>
</g>
<g fill="#735E4E" fill-opacity="1.00" stroke="None">
<path d="
M 507.00 543.00 
C 501.04 542.68 494.97 543.00 489.00 543.00
C 494.50 543.53 501.50 543.24 507.00 543.00 Z"/>
</g>
<g fill="#F4DCD3" fill-opacity="1.00" stroke="None">
<path d="
M 311.00 577.00 
C 314.78 584.57 320.39 590.76 325.25 597.75 C 330.12 604.73 335.51 611.57 340.30 618.70 C 345.10 625.82 350.65 632.20 355.75 639.25 C 360.86 646.30 364.30 653.59 371.25 659.75 C 378.20 665.91 386.74 668.84 396.02 670.98 C 405.31 673.11 419.78 672.12 429.01 670.01 C 438.24 667.89 445.86 663.03 454.23 659.23 C 462.60 655.43 467.41 648.71 475.25 644.25 C 483.09 639.79 487.43 631.57 493.00 626.00
C 494.48 611.52 480.01 599.26 468.70 591.31 C 457.38 583.35 441.20 577.95 427.07 573.93 C 412.95 569.90 393.55 565.53 378.00 565.00
C 367.84 564.66 358.16 574.93 346.01 572.01 C 333.85 569.08 322.80 578.25 311.00 577.00 Z"/>
</g>
<g fill="#816559" fill-opacity="1.00" stroke="None">
<path d="
M 211.00 587.00 
C 210.54 587.09 206.87 591.80 202.00 590.00 C 197.13 588.20 195.25 592.26 189.67 591.67 C 184.09 591.08 185.33 594.23 178.00 594.00 C 170.67 593.77 161.01 596.87 154.02 598.02 C 147.04 599.18 148.52 600.92 144.00 602.00
C 154.23 603.90 162.92 612.43 171.75 618.25 C 180.57 624.08 185.97 633.33 191.77 642.23 C 197.57 651.13 199.60 669.51 197.22 680.22 C 194.84 690.94 192.79 704.63 186.08 713.08 C 179.37 721.52 176.11 733.79 168.00 740.00
C 180.19 736.60 196.20 731.67 207.00 725.00
C 208.05 724.35 208.94 723.57 210.00 723.00
C 221.49 716.87 234.81 714.38 246.74 708.74 C 258.67 703.10 271.27 700.28 283.25 694.25 C 295.22 688.21 313.45 692.89 326.00 696.00
C 334.06 698.00 342.36 700.41 350.68 702.32 C 359.00 704.24 367.40 706.10 375.67 708.33 C 383.94 710.56 392.46 712.60 401.01 713.99 C 409.56 715.39 418.41 718.09 427.00 719.00 C 435.60 719.91 431.34 719.60 439.67 721.33 C 448.00 723.06 459.40 723.80 468.00 724.00 C 476.60 724.20 475.37 726.32 482.01 725.99 C 488.65 725.66 489.98 728.69 496.00 727.00 C 502.02 725.31 505.14 729.20 509.00 730.00
C 514.54 731.16 524.59 729.19 531.00 731.00 C 537.41 732.81 546.55 729.52 552.00 727.00
C 531.46 717.99 509.57 710.95 496.25 689.75 C 482.92 668.56 483.51 638.49 502.00 620.00
C 499.83 621.86 493.78 625.22 493.00 626.00
C 487.43 631.57 483.09 639.79 475.25 644.25 C 467.41 648.71 462.60 655.43 454.23 659.23 C 445.86 663.03 438.24 667.89 429.01 670.01 C 419.78 672.12 405.31 673.11 396.02 670.98 C 386.74 668.84 378.20 665.91 371.25 659.75 C 364.30 653.59 360.86 646.30 355.75 639.25 C 350.65 632.20 345.10 625.82 340.30 618.70 C 335.51 611.57 330.12 604.73 325.25 597.75 C 320.39 590.76 314.78 584.57 311.00 577.00
C 310.83 576.67 310.17 576.27 310.00 576.00
C 303.35 581.97 288.80 581.16 279.02 583.02 C 269.24 584.89 256.70 588.62 246.00 587.00 C 235.30 585.38 220.96 591.60 211.00 587.00 Z"/>
</g>
<g fill="#D0B1A7" fill-opacity="0.99" stroke="None">
<path d="
M 502.00 620.00 
C 483.51 638.49 482.92 668.56 496.25 689.75 C 509.57 710.95 531.46 717.99 552.00 727.00
C 567.64 719.77 571.87 702.81 582.25 689.25 C 592.63 675.69 603.10 659.82 598.78 641.22 C 594.46 622.63 595.84 600.67 591.00 582.00
C 583.67 582.11 576.33 581.85 569.00 582.00
C 541.09 582.56 522.18 602.75 502.00 620.00 Z"/>
</g>
<g fill="#D0B1A7" fill-opacity="0.98" stroke="None">
<path d="
M 127.00 604.00 
C 117.87 606.40 110.88 613.91 103.23 619.23 C 95.59 624.55 89.83 631.21 85.93 640.93 C 82.02 650.64 82.55 663.97 81.00 675.00 C 79.45 686.03 80.47 698.03 89.75 704.25 C 99.03 710.46 101.72 716.59 109.75 723.25 C 117.78 729.90 121.93 738.00 133.78 738.22 C 145.63 738.45 155.75 743.42 168.00 740.00
C 176.11 733.79 179.37 721.52 186.08 713.08 C 192.79 704.63 194.84 690.94 197.22 680.22 C 199.60 669.51 197.57 651.13 191.77 642.23 C 185.97 633.33 180.57 624.08 171.75 618.25 C 162.92 612.43 154.23 603.90 144.00 602.00
C 139.15 601.10 130.48 603.08 127.00 604.00 Z"/>
</g>
<g fill="#A6917F" fill-opacity="1.00" stroke="None">
<path d="
M 210.00 723.00 
C 210.50 722.93 217.75 727.62 223.22 726.78 C 228.69 725.93 235.32 727.95 242.00 727.00 C 248.68 726.05 250.07 726.91 258.02 724.03 C 265.98 721.14 276.04 715.55 284.08 712.08 C 292.11 708.60 291.97 709.66 298.08 707.08 C 304.18 704.49 306.58 703.18 312.07 702.07 C 317.56 700.97 321.45 696.28 326.00 696.00
C 313.45 692.89 295.22 688.21 283.25 694.25 C 271.27 700.28 258.67 703.10 246.74 708.74 C 234.81 714.38 221.49 716.87 210.00 723.00 Z"/>
</g>
<g fill="#997F79" fill-opacity="0.99" stroke="None">
<path d="
M 210.00 723.00 
C 208.94 723.57 208.05 724.35 207.00 725.00
C 203.83 731.51 209.17 742.19 212.00 747.00
C 214.32 743.02 226.54 748.58 232.00 747.00 C 237.46 745.42 246.79 748.06 253.22 746.22 C 259.66 744.38 264.62 745.08 272.07 743.07 C 279.53 741.06 279.92 741.67 289.07 738.07 C 298.23 734.48 310.15 728.22 317.10 722.10 C 324.05 715.98 325.52 718.95 332.02 715.02 C 338.53 711.10 344.67 712.41 352.00 712.00 C 359.33 711.59 364.30 713.26 371.02 714.98 C 377.75 716.69 379.82 718.22 386.69 721.31 C 393.57 724.40 392.38 724.96 400.75 729.25 C 409.11 733.55 419.55 741.81 428.08 745.92 C 436.61 750.03 436.85 748.96 444.07 751.93 C 451.30 754.89 454.64 754.93 462.07 755.93 C 469.51 756.93 476.85 755.49 484.00 755.00
C 483.70 756.25 482.17 756.71 482.00 758.00
C 487.44 754.53 497.56 754.93 502.25 750.25 C 506.93 745.56 511.30 736.54 509.00 730.00
C 505.14 729.20 502.02 725.31 496.00 727.00 C 489.98 728.69 488.65 725.66 482.01 725.99 C 475.37 726.32 476.60 724.20 468.00 724.00 C 459.40 723.80 448.00 723.06 439.67 721.33 C 431.34 719.60 435.60 719.91 427.00 719.00 C 418.41 718.09 409.56 715.39 401.01 713.99 C 392.46 712.60 383.94 710.56 375.67 708.33 C 367.40 706.10 359.00 704.24 350.68 702.32 C 342.36 700.41 334.06 698.00 326.00 696.00
C 321.45 696.28 317.56 700.97 312.07 702.07 C 306.58 703.18 304.18 704.49 298.08 707.08 C 291.97 709.66 292.11 708.60 284.08 712.08 C 276.04 715.55 265.98 721.14 258.02 724.03 C 250.07 726.91 248.68 726.05 242.00 727.00 C 235.32 727.95 228.69 725.93 223.22 726.78 C 217.75 727.62 210.50 722.93 210.00 723.00 Z"/>
</g>
<g fill="#8D7267" fill-opacity="0.99" stroke="None">
<path d="
M 212.00 747.00 
C 221.46 763.10 246.35 768.77 261.00 780.00
C 280.86 780.07 291.58 762.00 304.75 748.75 C 317.92 735.50 340.61 728.28 360.00 729.00 C 379.39 729.72 396.93 741.34 413.70 750.30 C 430.46 759.26 451.86 770.40 471.00 765.00
C 474.73 762.69 477.98 760.57 482.00 758.00
C 482.17 756.71 483.70 756.25 484.00 755.00
C 476.85 755.49 469.51 756.93 462.07 755.93 C 454.64 754.93 451.30 754.89 444.07 751.93 C 436.85 748.96 436.61 750.03 428.08 745.92 C 419.55 741.81 409.11 733.55 400.75 729.25 C 392.38 724.96 393.57 724.40 386.69 721.31 C 379.82 718.22 377.75 716.69 371.02 714.98 C 364.30 713.26 359.33 711.59 352.00 712.00 C 344.67 712.41 338.53 711.10 332.02 715.02 C 325.52 718.95 324.05 715.98 317.10 722.10 C 310.15 728.22 298.23 734.48 289.07 738.07 C 279.92 741.67 279.53 741.06 272.07 743.07 C 264.62 745.08 259.66 744.38 253.22 746.22 C 246.79 748.06 237.46 745.42 232.00 747.00 C 226.54 748.58 214.32 743.02 212.00 747.00 Z"/>
</g>
<g fill="#634F46" fill-opacity="0.99" stroke="None">
<path d="
M 261.00 780.00 
C 266.11 783.92 273.22 792.20 275.00 798.00
C 278.64 799.23 283.34 791.79 285.90 789.90 C 288.46 788.02 292.82 783.16 294.92 779.92 C 297.01 776.67 302.55 772.44 304.00 769.00
C 305.38 748.66 330.74 742.64 348.00 740.00 C 365.27 737.36 390.76 745.90 402.75 759.25 C 414.74 772.59 435.13 785.27 452.00 780.00
C 457.95 774.92 464.70 768.90 471.00 765.00
C 451.86 770.40 430.46 759.26 413.70 750.30 C 396.93 741.34 379.39 729.72 360.00 729.00 C 340.61 728.28 317.92 735.50 304.75 748.75 C 291.58 762.00 280.86 780.07 261.00 780.00 Z"/>
</g>
<g fill="#F4DED9" fill-opacity="1.00" stroke="None">
<path d="
M 304.00 769.00 
C 300.93 814.11 300.13 860.08 285.00 902.00
C 284.47 903.47 282.58 904.17 283.00 906.00
C 309.74 907.52 340.75 907.65 367.00 905.00 C 393.25 902.35 418.02 900.07 442.00 893.00
C 437.22 890.70 438.12 879.73 435.33 874.67 C 432.54 869.61 433.17 861.02 431.98 854.02 C 430.78 847.03 429.35 840.41 431.00 832.00 C 432.65 823.59 430.49 821.44 434.07 811.07 C 437.66 800.71 443.41 787.34 452.00 780.00
C 435.13 785.27 414.74 772.59 402.75 759.25 C 390.76 745.90 365.27 737.36 348.00 740.00 C 330.74 742.64 305.38 748.66 304.00 769.00 Z"/>
</g>
<g fill="#726473" fill-opacity="0.98" stroke="None">
<path d="
M 275.00 798.00 
C 279.62 813.00 273.89 831.98 272.93 846.93 C 271.97 861.88 266.92 876.23 265.00 891.00
C 264.73 893.04 261.92 901.44 263.00 903.00
C 269.05 903.68 280.36 908.37 285.00 902.00
C 300.13 860.08 300.93 814.11 304.00 769.00
C 302.55 772.44 297.01 776.67 294.92 779.92 C 292.82 783.16 288.46 788.02 285.90 789.90 C 283.34 791.79 278.64 799.23 275.00 798.00 Z"/>
</g>
<g fill="#B2968D" fill-opacity="1.00" stroke="None">
<path d="
M 164.00 965.00 
C 164.85 972.16 173.13 980.38 177.25 986.75 C 181.36 993.12 187.89 999.34 194.25 1004.75 C 200.61 1010.16 209.36 1014.05 217.68 1017.32 C 226.00 1020.59 236.26 1023.02 246.01 1023.99 C 255.76 1024.97 269.71 1023.96 279.22 1022.22 C 288.73 1020.48 300.06 1019.16 309.02 1016.02 C 317.99 1012.89 326.62 1011.02 335.02 1007.03 C 343.43 1003.03 351.75 999.81 360.00 996.00
C 384.57 984.64 410.58 971.16 436.03 961.03 C 461.47 950.89 485.69 934.63 510.00 926.00
C 521.96 924.38 517.51 910.98 514.77 903.23 C 512.03 895.48 506.93 887.94 505.00 880.00
C 484.62 886.18 462.27 886.59 442.00 893.00
C 418.02 900.07 393.25 902.35 367.00 905.00 C 340.75 907.65 309.74 907.52 283.00 906.00
C 282.58 904.17 284.47 903.47 285.00 902.00
C 280.36 908.37 269.05 903.68 263.00 903.00
C 241.10 900.55 217.92 894.56 201.00 880.00
C 194.42 882.55 195.77 896.27 191.77 901.77 C 187.77 907.27 186.09 916.53 182.92 922.92 C 179.76 929.32 176.61 937.66 173.31 944.31 C 170.00 950.95 167.32 958.50 164.00 965.00 Z"/>
</g>
<g fill="#361C15" fill-opacity="0.93" stroke="None">
<path d="
M 263.00 903.00 
C 261.92 901.44 264.73 893.04 265.00 891.00
C 263.13 886.49 251.91 885.20 247.00 884.00 C 242.09 882.80 230.83 881.16 225.00 881.00 C 219.17 880.84 206.74 877.77 201.00 880.00
C 217.92 894.56 241.10 900.55 263.00 903.00 Z"/>
</g>
<g fill="#DAC2AF" fill-opacity="1.00" stroke="None">
<path d="
M 360.00 996.00 
C 370.81 996.17 379.97 1003.94 391.22 1004.78 C 402.48 1005.61 416.27 1009.32 428.00 1009.00 C 439.73 1008.68 455.67 1008.95 466.00 1006.00 C 476.34 1003.05 487.27 999.87 495.23 994.23 C 503.19 988.58 515.07 984.06 516.00 974.00
C 516.77 965.62 513.75 956.51 513.00 948.00
C 512.60 943.42 507.51 929.38 510.00 926.00
C 485.69 934.63 461.47 950.89 436.03 961.03 C 410.58 971.16 384.57 984.64 360.00 996.00 Z"/>
</g>
<g fill="#371C14" fill-opacity="0.96" stroke="None">
<path d="
M 513.00 948.00 
C 513.75 956.51 516.77 965.62 516.00 974.00
C 516.65 973.07 523.68 969.06 524.30 965.30 C 524.93 961.55 530.65 956.40 530.92 952.92 C 531.20 949.45 537.74 941.32 534.00 939.00
C 529.41 938.76 515.10 943.19 513.00 948.00 Z"/>
</g>
<g fill="#6C4B42" fill-opacity="1.00" stroke="None">
<path d="
M 516.00 974.00 
C 515.07 984.06 503.19 988.58 495.23 994.23 C 487.27 999.87 476.34 1003.05 466.00 1006.00 C 455.67 1008.95 439.73 1008.68 428.00 1009.00 C 416.27 1009.32 402.48 1005.61 391.22 1004.78 C 379.97 1003.94 370.81 996.17 360.00 996.00
C 351.75 999.81 343.43 1003.03 335.02 1007.03 C 326.62 1011.02 317.99 1012.89 309.02 1016.02 C 300.06 1019.16 288.73 1020.48 279.22 1022.22 C 269.71 1023.96 255.76 1024.97 246.01 1023.99 C 236.26 1023.02 226.00 1020.59 217.68 1017.32 C 209.36 1014.05 200.61 1010.16 194.25 1004.75 C 187.89 999.34 181.36 993.12 177.25 986.75 C 173.13 980.38 164.85 972.16 164.00 965.00
C 157.94 976.85 145.25 989.75 136.00 999.00
C 134.98 1005.94 142.78 1016.23 144.98 1023.03 C 147.17 1029.82 153.92 1036.44 158.75 1042.25 C 163.59 1048.05 170.18 1053.94 176.25 1058.75 C 182.31 1063.57 189.19 1067.72 196.23 1071.77 C 203.27 1075.83 211.19 1079.86 219.08 1082.92 C 226.96 1085.99 234.79 1089.23 243.22 1091.78 C 251.66 1094.33 260.31 1096.70 269.22 1098.78 C 278.14 1100.86 288.67 1102.75 298.01 1103.99 C 307.34 1105.23 317.32 1108.08 327.01 1107.99 C 336.70 1107.90 349.25 1112.23 359.00 1110.00
C 365.64 1108.48 370.91 1101.95 377.23 1099.23 C 383.55 1096.51 388.87 1091.39 395.08 1088.08 C 401.30 1084.77 407.82 1080.44 414.08 1077.08 C 420.33 1073.71 425.90 1069.54 432.23 1066.23 C 438.56 1062.92 444.89 1058.62 451.23 1055.23 C 457.57 1051.84 463.82 1048.59 470.08 1045.08 C 476.34 1041.57 483.12 1038.82 489.25 1035.25 C 495.37 1031.67 501.44 1027.30 505.75 1021.75 C 510.07 1016.21 516.26 1012.66 519.92 1006.92 C 523.58 1001.17 529.37 995.42 532.75 989.75 C 536.14 984.08 541.96 977.83 543.92 971.92 C 545.88 966.02 555.83 959.17 555.00 953.00
C 549.39 948.70 541.26 939.38 534.00 939.00
C 537.74 941.32 531.20 949.45 530.92 952.92 C 530.65 956.40 524.93 961.55 524.30 965.30 C 523.68 969.06 516.65 973.07 516.00 974.00 Z"/>
</g>
<g fill="#C5A396" fill-opacity="0.99" stroke="None">
<path d="
M 359.00 1110.00 
C 354.94 1116.43 354.69 1127.65 348.75 1133.75 C 342.80 1139.84 339.79 1147.48 332.75 1152.75 C 325.71 1158.03 321.16 1163.11 314.25 1168.25 C 307.34 1173.39 300.96 1177.91 293.77 1182.77 C 286.58 1187.63 279.26 1190.92 271.77 1195.77 C 264.28 1200.62 257.10 1202.42 248.98 1206.98 C 240.85 1211.53 232.08 1215.16 222.00 1213.00 C 211.92 1210.84 201.28 1211.65 191.00 1210.00 C 180.72 1208.35 169.42 1208.16 159.00 1207.00 C 148.58 1205.84 137.85 1204.75 128.00 1203.00
C 142.84 1197.11 157.86 1191.92 173.00 1187.00
C 139.45 1182.84 102.50 1180.78 69.00 1180.00
C 64.99 1185.72 71.73 1195.45 70.00 1202.00 C 68.27 1208.55 72.41 1216.66 72.93 1223.07 C 73.44 1229.49 75.31 1236.87 76.98 1243.02 C 78.64 1249.18 81.62 1253.82 82.93 1260.07 C 84.23 1266.33 86.22 1275.36 85.00 1282.00 C 83.78 1288.64 82.11 1295.12 80.23 1301.23 C 78.35 1307.34 77.01 1312.56 74.08 1318.08 C 71.15 1323.59 66.82 1329.10 74.08 1331.92 C 81.33 1334.75 84.70 1336.30 92.00 1338.00
C 112.89 1342.86 132.30 1348.09 154.00 1347.00
C 170.45 1346.18 184.28 1332.47 193.70 1319.70 C 203.13 1306.93 210.18 1290.78 218.75 1276.75 C 227.33 1262.73 232.30 1247.50 247.23 1237.23 C 262.16 1226.96 283.45 1242.56 301.22 1239.22 C 318.99 1235.88 337.95 1234.57 351.00 1221.00
C 353.19 1218.73 355.00 1216.26 358.00 1215.00
C 357.05 1218.55 354.18 1221.95 351.00 1224.00
C 346.92 1228.41 344.38 1234.16 341.00 1239.00
C 366.88 1231.70 389.95 1216.75 414.00 1205.00
C 409.03 1215.45 398.46 1223.27 394.00 1234.00
C 403.06 1233.65 415.92 1242.19 422.92 1235.92 C 429.92 1229.64 435.35 1223.91 441.75 1216.75 C 448.15 1209.59 453.47 1204.11 459.75 1197.75 C 466.02 1191.38 470.80 1181.28 481.00 1181.00
C 486.55 1177.77 493.45 1172.22 500.23 1169.23 C 507.01 1166.24 512.81 1160.90 519.08 1157.08 C 525.36 1153.26 531.18 1148.26 536.75 1143.75 C 542.33 1139.25 548.79 1134.73 553.75 1129.75 C 558.72 1124.77 565.17 1119.34 569.75 1114.75 C 574.34 1110.16 581.15 1102.56 585.25 1099.25 C 589.34 1095.94 598.21 1082.77 602.00 1086.00
C 601.62 1082.32 601.82 1084.66 604.00 1082.00
C 619.26 1062.81 638.54 1044.39 651.00 1022.00
C 619.06 998.38 586.45 977.10 555.00 953.00
C 555.83 959.17 545.88 966.02 543.92 971.92 C 541.96 977.83 536.14 984.08 532.75 989.75 C 529.37 995.42 523.58 1001.17 519.92 1006.92 C 516.26 1012.66 510.07 1016.21 505.75 1021.75 C 501.44 1027.30 495.37 1031.67 489.25 1035.25 C 483.12 1038.82 476.34 1041.57 470.08 1045.08 C 463.82 1048.59 457.57 1051.84 451.23 1055.23 C 444.89 1058.62 438.56 1062.92 432.23 1066.23 C 425.90 1069.54 420.33 1073.71 414.08 1077.08 C 407.82 1080.44 401.30 1084.77 395.08 1088.08 C 388.87 1091.39 383.55 1096.51 377.23 1099.23 C 370.91 1101.95 365.64 1108.48 359.00 1110.00
M 419.00 1201.00 
C 419.16 1203.69 416.09 1204.17 415.00 1206.00
C 412.39 1203.29 416.62 1201.06 419.00 1201.00 Z"/>
</g>
<g fill="#FBE6DB" fill-opacity="0.99" stroke="None">
<path d="
M 0.00 1135.00 
L 0.00 1138.00
C 21.06 1138.46 42.24 1143.60 63.00 1142.00
C 65.88 1145.94 61.03 1148.63 59.00 1151.00
C 59.35 1150.34 59.41 1153.10 57.25 1155.25 C 55.08 1157.39 52.35 1157.33 53.00 1157.00
C 45.71 1164.08 35.49 1170.13 31.00 1178.00
C 44.02 1177.27 56.20 1179.81 69.00 1180.00
C 102.50 1180.78 139.45 1182.84 173.00 1187.00
C 157.86 1191.92 142.84 1197.11 128.00 1203.00
C 137.85 1204.75 148.58 1205.84 159.00 1207.00 C 169.42 1208.16 180.72 1208.35 191.00 1210.00 C 201.28 1211.65 211.92 1210.84 222.00 1213.00 C 232.08 1215.16 240.85 1211.53 248.98 1206.98 C 257.10 1202.42 264.28 1200.62 271.77 1195.77 C 279.26 1190.92 286.58 1187.63 293.77 1182.77 C 300.96 1177.91 307.34 1173.39 314.25 1168.25 C 321.16 1163.11 325.71 1158.03 332.75 1152.75 C 339.79 1147.48 342.80 1139.84 348.75 1133.75 C 354.69 1127.65 354.94 1116.43 359.00 1110.00
C 349.25 1112.23 336.70 1107.90 327.01 1107.99 C 317.32 1108.08 307.34 1105.23 298.01 1103.99 C 288.67 1102.75 278.14 1100.86 269.22 1098.78 C 260.31 1096.70 251.66 1094.33 243.22 1091.78 C 234.79 1089.23 226.96 1085.99 219.08 1082.92 C 211.19 1079.86 203.27 1075.83 196.23 1071.77 C 189.19 1067.72 182.31 1063.57 176.25 1058.75 C 170.18 1053.94 163.59 1048.05 158.75 1042.25 C 153.92 1036.44 147.17 1029.82 144.98 1023.03 C 142.78 1016.23 134.98 1005.94 136.00 999.00
C 127.91 1007.17 119.31 1013.81 112.23 1022.23 C 105.15 1030.65 95.14 1036.04 88.30 1045.30 C 81.46 1054.57 74.93 1063.73 63.07 1067.07 C 51.22 1070.42 34.78 1069.88 26.25 1077.25 C 17.72 1084.62 12.48 1094.32 6.00 1103.00
C 15.16 1108.29 25.11 1113.78 33.00 1120.00
C 21.43 1123.39 11.43 1131.40 0.00 1135.00 Z"/>
</g>
<g fill="#3A2B24" fill-opacity="0.99" stroke="None">
<path d="
M 602.00 1086.00 
C 604.32 1108.37 619.11 1127.84 609.00 1151.00
C 608.62 1164.12 620.53 1176.74 621.00 1190.00
C 622.66 1189.46 623.33 1187.44 625.00 1187.00
C 629.40 1181.85 633.69 1176.74 636.92 1170.92 C 640.15 1165.10 644.79 1159.29 646.92 1152.92 C 649.05 1146.56 653.91 1139.43 654.78 1132.78 C 655.64 1126.13 662.28 1116.61 661.00 1110.00
C 653.69 1102.97 646.60 1094.77 637.23 1090.77 C 627.86 1086.77 615.06 1078.54 604.00 1082.00
C 601.82 1084.66 601.62 1082.32 602.00 1086.00 Z"/>
</g>
<g fill="#F8E2D9" fill-opacity="1.00" stroke="None">
<path d="
M 481.00 1181.00 
C 480.00 1184.52 482.42 1185.84 483.00 1188.00
C 490.70 1191.81 503.88 1184.06 511.22 1182.22 C 518.56 1180.39 527.40 1175.52 533.75 1170.75 C 540.09 1165.98 547.56 1161.59 552.75 1154.75 C 557.94 1147.91 568.89 1140.82 568.93 1153.07 C 568.96 1165.33 568.60 1172.16 563.00 1182.00
C 553.00 1199.56 533.41 1210.21 518.00 1221.00
C 527.96 1222.82 545.37 1224.51 555.00 1221.00
C 563.42 1217.93 568.74 1206.66 575.25 1200.25 C 581.75 1193.84 587.62 1184.79 593.25 1177.25 C 598.88 1169.71 605.31 1159.45 609.00 1151.00
C 619.11 1127.84 604.32 1108.37 602.00 1086.00
C 598.21 1082.77 589.34 1095.94 585.25 1099.25 C 581.15 1102.56 574.34 1110.16 569.75 1114.75 C 565.17 1119.34 558.72 1124.77 553.75 1129.75 C 548.79 1134.73 542.33 1139.25 536.75 1143.75 C 531.18 1148.26 525.36 1153.26 519.08 1157.08 C 512.81 1160.90 507.01 1166.24 500.23 1169.23 C 493.45 1172.22 486.55 1177.77 481.00 1181.00 Z"/>
</g>
<g fill="#B49D8E" fill-opacity="0.98" stroke="None">
<path d="
M 625.00 1187.00 
C 620.51 1192.25 615.89 1195.29 610.77 1199.77 C 605.65 1204.25 600.29 1207.02 594.31 1210.31 C 588.32 1213.59 581.54 1215.76 574.98 1217.98 C 568.41 1220.19 559.30 1221.09 555.00 1221.00
C 545.37 1224.51 527.96 1222.82 518.00 1221.00
C 510.85 1219.69 495.84 1218.13 491.00 1213.00
C 498.84 1230.95 514.26 1236.05 522.26 1253.74 C 530.25 1271.43 530.52 1291.96 537.77 1311.23 C 545.02 1330.50 563.40 1339.65 585.00 1333.00
C 604.20 1327.09 622.58 1316.61 639.00 1305.00
C 656.22 1292.83 658.00 1273.30 658.00 1254.00
C 657.73 1251.25 657.00 1247.42 657.00 1244.00
C 657.00 1237.44 657.63 1230.52 657.00 1224.00
C 656.68 1220.73 655.16 1215.98 656.00 1212.00
C 658.20 1212.74 655.69 1216.33 658.00 1217.00
C 658.59 1187.59 660.58 1156.03 679.00 1133.00
L 679.00 1130.00
C 673.95 1122.34 667.32 1116.08 661.00 1110.00
C 662.28 1116.61 655.64 1126.13 654.78 1132.78 C 653.91 1139.43 649.05 1146.56 646.92 1152.92 C 644.79 1159.29 640.15 1165.10 636.92 1170.92 C 633.69 1176.74 629.40 1181.85 625.00 1187.00 Z"/>
</g>
<g fill="#000000" fill-opacity="0.00" stroke="None">
<path d="
M 658.00 1217.00 
C 657.95 1219.42 657.16 1222.30 657.00 1224.00
C 657.63 1230.52 657.00 1237.44 657.00 1244.00
C 657.27 1246.75 658.00 1250.58 658.00 1254.00
C 658.00 1273.30 656.22 1292.83 639.00 1305.00
C 635.86 1315.50 644.85 1329.48 645.00 1340.00 C 645.14 1350.53 650.39 1361.04 651.93 1372.07 C 653.46 1383.11 656.63 1395.23 658.78 1406.22 C 660.93 1417.21 664.00 1429.10 665.99 1440.01 C 667.98 1450.92 651.24 1451.16 643.92 1456.92 C 636.61 1462.68 624.02 1465.56 617.00 1472.00
L 679.00 1472.00
L 679.00 1133.00
C 660.58 1156.03 658.59 1187.59 658.00 1217.00 Z"/>
</g>
<g fill="#000000" fill-opacity="0.00" stroke="None">
<path d="
M 0.00 1472.00 
L 613.00 1472.00
C 611.36 1463.14 608.43 1454.66 606.02 1445.98 C 603.62 1437.29 600.57 1428.13 598.68 1419.32 C 596.78 1410.52 592.93 1401.12 591.68 1392.32 C 590.43 1383.52 586.33 1372.40 586.02 1363.98 C 585.71 1355.56 579.77 1340.25 585.00 1333.00
C 563.40 1339.65 545.02 1330.50 537.77 1311.23 C 530.52 1291.96 530.25 1271.43 522.26 1253.74 C 514.26 1236.05 498.84 1230.95 491.00 1213.00
C 489.34 1209.21 487.51 1205.09 486.00 1201.00
C 484.51 1196.97 484.00 1191.71 483.00 1188.00
C 482.42 1185.84 480.00 1184.52 481.00 1181.00
C 470.80 1181.28 466.02 1191.38 459.75 1197.75 C 453.47 1204.11 448.15 1209.59 441.75 1216.75 C 435.35 1223.91 429.92 1229.64 422.92 1235.92 C 415.92 1242.19 403.06 1233.65 394.00 1234.00
C 398.46 1223.27 409.03 1215.45 414.00 1205.00
C 389.95 1216.75 366.88 1231.70 341.00 1239.00
C 344.38 1234.16 346.92 1228.41 351.00 1224.00
C 352.20 1221.88 351.15 1220.56 351.00 1221.00
C 337.95 1234.57 318.99 1235.88 301.22 1239.22 C 283.45 1242.56 262.16 1226.96 247.23 1237.23 C 232.30 1247.50 227.33 1262.73 218.75 1276.75 C 210.18 1290.78 203.13 1306.93 193.70 1319.70 C 184.28 1332.47 170.45 1346.18 154.00 1347.00
C 156.41 1351.08 148.81 1360.30 148.22 1365.22 C 147.63 1370.15 143.55 1377.74 142.22 1383.22 C 140.90 1388.70 137.61 1395.42 136.22 1401.22 C 134.83 1407.02 132.02 1413.52 130.22 1419.22 C 128.42 1424.92 125.83 1430.66 123.08 1436.08 C 120.32 1441.49 117.45 1445.48 112.75 1449.75 C 108.05 1454.02 103.19 1456.18 96.98 1457.98 C 90.76 1459.77 82.67 1460.17 76.00 1459.00 C 69.33 1457.83 64.36 1454.79 57.93 1453.07 C 51.50 1451.36 46.28 1447.30 49.93 1440.93 C 53.58 1434.56 54.38 1430.20 57.25 1424.25 C 60.13 1418.31 61.18 1412.68 63.97 1406.97 C 66.76 1401.26 68.25 1395.59 70.93 1389.93 C 73.61 1384.26 75.72 1378.78 77.93 1372.93 C 80.13 1367.08 82.53 1361.79 84.92 1355.92 C 87.32 1350.06 89.82 1344.01 92.00 1338.00
C 84.70 1336.30 81.33 1334.75 74.08 1331.92 C 66.82 1329.10 71.15 1323.59 74.08 1318.08 C 77.01 1312.56 78.35 1307.34 80.23 1301.23 C 82.11 1295.12 83.78 1288.64 85.00 1282.00 C 86.22 1275.36 84.23 1266.33 82.93 1260.07 C 81.62 1253.82 78.64 1249.18 76.98 1243.02 C 75.31 1236.87 73.44 1229.49 72.93 1223.07 C 72.41 1216.66 68.27 1208.55 70.00 1202.00 C 71.73 1195.45 64.99 1185.72 69.00 1180.00
C 56.20 1179.81 44.02 1177.27 31.00 1178.00
C 35.49 1170.13 45.71 1164.08 53.00 1157.00
C 55.08 1154.98 56.97 1152.99 59.00 1151.00
C 61.03 1148.63 65.88 1145.94 63.00 1142.00
C 42.24 1143.60 21.06 1138.46 0.00 1138.00
L 0.00 1472.00 Z"/>
</g>
<g fill="#6F5040" fill-opacity="1.00" stroke="None">
<path d="
M 483.00 1188.00 
C 484.00 1191.71 484.51 1196.97 486.00 1201.00
C 493.25 1204.87 500.57 1199.47 509.01 1200.01 C 517.45 1200.55 520.16 1199.68 530.22 1197.22 C 540.28 1194.76 555.94 1191.12 563.00 1182.00
C 568.60 1172.16 568.96 1165.33 568.93 1153.07 C 568.89 1140.82 557.94 1147.91 552.75 1154.75 C 547.56 1161.59 540.09 1165.98 533.75 1170.75 C 527.40 1175.52 518.56 1180.39 511.22 1182.22 C 503.88 1184.06 490.70 1191.81 483.00 1188.00 Z"/>
</g>
<g fill="#F7EADA" fill-opacity="0.54" stroke="None">
<path d="
M 53.00 1157.00 
C 52.35 1157.33 55.08 1157.39 57.25 1155.25 C 59.41 1153.10 59.35 1150.34 59.00 1151.00
C 56.97 1152.99 55.08 1154.98 53.00 1157.00 Z"/>
</g>
<g fill="#644D42" fill-opacity="1.00" stroke="None">
<path d="
M 555.00 1221.00 
C 559.30 1221.09 568.41 1220.19 574.98 1217.98 C 581.54 1215.76 588.32 1213.59 594.31 1210.31 C 600.29 1207.02 605.65 1204.25 610.77 1199.77 C 615.89 1195.29 620.51 1192.25 625.00 1187.00
C 623.33 1187.44 622.66 1189.46 621.00 1190.00
C 620.53 1176.74 608.62 1164.12 609.00 1151.00
C 605.31 1159.45 598.88 1169.71 593.25 1177.25 C 587.62 1184.79 581.75 1193.84 575.25 1200.25 C 568.74 1206.66 563.42 1217.93 555.00 1221.00 Z"/>
</g>
<g fill="#DCBEB4" fill-opacity="0.99" stroke="None">
<path d="
M 486.00 1201.00 
C 487.51 1205.09 489.34 1209.21 491.00 1213.00
C 495.84 1218.13 510.85 1219.69 518.00 1221.00
C 533.41 1210.21 553.00 1199.56 563.00 1182.00
C 555.94 1191.12 540.28 1194.76 530.22 1197.22 C 520.16 1199.68 517.45 1200.55 509.01 1200.01 C 500.57 1199.47 493.25 1204.87 486.00 1201.00 Z"/>
</g>
<g fill="#BEA390" fill-opacity="0.49" stroke="None">
<path d="
M 419.00 1201.00 
C 416.62 1201.06 412.39 1203.29 415.00 1206.00
C 416.09 1204.17 419.16 1203.69 419.00 1201.00 Z"/>
</g>
<g fill="#A2948B" fill-opacity="0.40" stroke="None">
<path d="
M 657.00 1224.00 
C 657.16 1222.30 657.95 1219.42 658.00 1217.00
C 655.69 1216.33 658.20 1212.74 656.00 1212.00
C 655.16 1215.98 656.68 1220.73 657.00 1224.00 Z"/>
</g>
<g fill="#BAA088" fill-opacity="0.40" stroke="None">
<path d="
M 351.00 1221.00 
C 351.15 1220.56 352.20 1221.88 351.00 1224.00
C 354.18 1221.95 357.05 1218.55 358.00 1215.00
C 355.00 1216.26 353.19 1218.73 351.00 1221.00 Z"/>
</g>
<g fill="#81817E" fill-opacity="0.02" stroke="None">
<path d="
M 658.00 1254.00 
C 658.00 1250.58 657.27 1246.75 657.00 1244.00
C 657.00 1247.42 657.73 1251.25 658.00 1254.00 Z"/>
</g>
<g fill="#372016" fill-opacity="0.97" stroke="None">
<path d="
M 585.00 1333.00 
C 579.77 1340.25 585.71 1355.56 586.02 1363.98 C 586.33 1372.40 590.43 1383.52 591.68 1392.32 C 592.93 1401.12 596.78 1410.52 598.68 1419.32 C 600.57 1428.13 603.62 1437.29 606.02 1445.98 C 608.43 1454.66 611.36 1463.14 613.00 1472.00
L 617.00 1472.00
C 624.02 1465.56 636.61 1462.68 643.92 1456.92 C 651.24 1451.16 667.98 1450.92 665.99 1440.01 C 664.00 1429.10 660.93 1417.21 658.78 1406.22 C 656.63 1395.23 653.46 1383.11 651.93 1372.07 C 650.39 1361.04 645.14 1350.53 645.00 1340.00 C 644.85 1329.48 635.86 1315.50 639.00 1305.00
C 622.58 1316.61 604.20 1327.09 585.00 1333.00 Z"/>
</g>
<g fill="#3A2219" fill-opacity="0.97" stroke="None">
<path d="
M 154.00 1347.00 
C 132.30 1348.09 112.89 1342.86 92.00 1338.00
C 89.82 1344.01 87.32 1350.06 84.92 1355.92 C 82.53 1361.79 80.13 1367.08 77.93 1372.93 C 75.72 1378.78 73.61 1384.26 70.93 1389.93 C 68.25 1395.59 66.76 1401.26 63.97 1406.97 C 61.18 1412.68 60.13 1418.31 57.25 1424.25 C 54.38 1430.20 53.58 1434.56 49.93 1440.93 C 46.28 1447.30 51.50 1451.36 57.93 1453.07 C 64.36 1454.79 69.33 1457.83 76.00 1459.00 C 82.67 1460.17 90.76 1459.77 96.98 1457.98 C 103.19 1456.18 108.05 1454.02 112.75 1449.75 C 117.45 1445.48 120.32 1441.49 123.08 1436.08 C 125.83 1430.66 128.42 1424.92 130.22 1419.22 C 132.02 1413.52 134.83 1407.02 136.22 1401.22 C 137.61 1395.42 140.90 1388.70 142.22 1383.22 C 143.55 1377.74 147.63 1370.15 148.22 1365.22 C 148.81 1360.30 156.41 1351.08 154.00 1347.00 Z"/>
</g>
</svg>